<svg width="521" height="376" viewBox="0 0 521 376" fill="none" xmlns="http://www.w3.org/2000/svg">
<g opacity="0.5">
<path fill-rule="evenodd" clip-rule="evenodd" d="M50.3629 65.8628C50.609 60.5708 50.9473 55.2863 51.1255 49.9911C51.2138 47.3672 51.2831 44.743 51.3499 42.1186C51.3647 41.5342 51.38 40.9501 51.3931 40.3657C51.4365 38.3804 51.201 38.2179 53.1989 38.0417C62.1119 37.255 71.0601 36.9942 79.9839 36.2824C90.7461 35.4239 101.564 34.8312 112.357 34.5655C117.153 34.4472 121.97 34.2022 126.767 34.3513C127.829 34.3843 129.916 34.1078 130.334 34.934C130.515 35.2909 130.136 36.519 130.088 36.9309C129.937 38.2174 129.797 39.5085 129.71 40.8014C129.2 48.4272 129.504 56.2453 130.981 63.7555C127.517 61.8022 123.14 60.122 119.103 60.4555C114.987 60.7954 111.908 63.1736 108.613 65.3625C106.749 66.6005 106.122 66.9261 104.262 65.7268C102.66 64.6931 101.144 63.5112 99.6327 62.3513C97.2999 60.5612 95.0984 58.6203 92.8362 56.7436C88.6769 53.2931 82.9466 48.3816 77.2019 49.8277C73.0977 50.8609 69.3078 53.1166 65.7454 55.3242C60.453 58.604 55.662 62.6205 50.3629 65.8628ZM121.694 32.0011C101.245 32.0011 80.9492 33.9835 60.558 35.0559C58.4285 35.1678 56.3061 35.3327 54.1839 35.5375C52.7696 35.674 49.3111 35.1007 48.3843 36.3092C47.7659 37.1154 48.2973 37.2364 48.3843 38.0024C48.494 38.9679 48.4289 40.1117 48.4006 41.1336C48.3325 43.5958 48.261 46.0578 48.205 48.5203C47.994 57.827 47.8621 67.132 48.2388 76.4363C48.3209 78.4655 49.0604 81.275 48.6558 83.2468C48.3631 84.6743 47.384 85.5431 49.6418 85.8069C51.8635 86.0666 54.5801 85.4061 56.8039 85.1946C59.0405 84.9817 61.2768 84.7507 63.516 84.5661C73.2518 83.7639 83.082 83.8851 92.8434 83.6185C102.693 83.3496 112.546 83.3323 122.398 83.3269C126.521 83.3247 131.231 83.5563 135.254 82.4218C136.669 82.0226 136.898 81.8259 136.549 80.4217C136.483 80.1553 136.055 80.057 135.93 79.5754C135.759 78.92 135.847 78.1234 135.807 77.4412C135.677 75.2131 135.631 72.981 135.526 70.7515C135.351 67.0263 134.709 63.4111 134.234 59.7234C133.686 55.4646 133.714 51.1405 133.703 46.8539C133.697 44.4762 133.758 42.1064 133.949 39.7354C134.071 38.2146 134.82 35.9442 134.44 34.526C134.251 33.8198 133.942 33.2598 133.207 32.956C132.741 32.7632 132.349 32.9141 131.889 32.8653C131.343 32.8073 131.003 32.7307 130.348 32.5825C127.546 31.9474 124.549 32.0011 121.694 32.0011Z" fill="#69A1AC"/>
<path fill-rule="evenodd" clip-rule="evenodd" d="M110.377 42.1259C110.376 43.6079 110.144 45.7949 110.828 47.1904C111.694 48.9605 112.779 48.4072 113.066 46.7438C113.23 45.7907 113.226 42.9701 112.92 42.1259C112.487 40.931 110.377 40.1172 110.377 42.1259Z" fill="#89C5CC"/>
<path fill-rule="evenodd" clip-rule="evenodd" d="M112.864 42.6979C111.472 42.747 107.42 42.413 106.479 43.5317C104.864 45.4505 107.675 45.7904 108.882 45.6829C110.279 45.5587 114.595 45.8619 115.531 44.7419C117.095 42.8682 113.958 42.658 112.864 42.6979Z" fill="#89C5CC"/>
<path fill-rule="evenodd" clip-rule="evenodd" d="M58.8715 92.2085C64.9883 93.271 63.0853 102.597 57.2975 100.437C55.2809 99.6842 52.3093 97.5093 53.424 94.9468C54.2566 93.0322 56.9703 92.0261 58.8715 92.2085ZM56.3391 89.3087C52.361 89.9784 49.6415 94.2832 51.0054 98.0382C52.3211 101.661 57.3118 104.314 60.9922 103.012C64.5057 101.769 66.2585 97.094 65.074 93.6742C63.8363 90.1011 59.8043 88.7253 56.3391 89.3087Z" fill="#89C5CC"/>
<path fill-rule="evenodd" clip-rule="evenodd" d="M93.5438 93.2991C92.0211 93.4256 90.7049 94.4918 89.1725 94.6806C87.7398 94.8571 86.5523 94.3668 85.2108 93.9749C83.5891 93.5015 82.1019 93.2932 80.4447 93.7139C79.1784 94.0356 77.9293 94.8972 76.6139 95.0012C74.0255 95.2056 71.0172 92.2524 68.9964 95.5925C68.0276 97.1938 69.4343 98.2253 70.8833 97.4785C72.394 96.7002 71.6523 96.4214 73.5262 96.8813C75.0896 97.2646 76.3533 97.4728 77.9194 96.9355C79.3382 96.449 80.5835 95.5585 82.1253 95.4584C83.635 95.3606 84.9484 96.0482 86.3916 96.345C88.1663 96.7098 89.7367 96.4337 91.4182 95.8774C93.0177 95.3483 93.6558 95.0589 95.2698 95.5309C96.2918 95.8299 98.5244 96.7795 99.519 96.0142C101.239 94.6912 98.9364 94.4977 98.0295 94.3096C96.5696 94.0072 95.0589 93.1751 93.5438 93.2991Z" fill="#89C5CC"/>
<path fill-rule="evenodd" clip-rule="evenodd" d="M128.394 92.4106C128.406 92.4199 128.418 92.4293 128.43 92.4387C128.418 92.4293 128.406 92.4199 128.394 92.4106ZM126.899 92.0977C129.122 92.2409 131.526 96.2909 128.58 96.4346C126.507 96.5359 124.187 92.9894 126.899 92.0977ZM126.587 88.7836C119.557 90.7467 122.77 100.658 129.551 99.5132C132.631 98.9931 133.675 95.4247 132.657 92.7833C132.22 91.6488 131.367 90.6923 130.348 90.0394C129.596 89.5578 127.446 88.5443 126.587 88.7836Z" fill="#89C5CC"/>
<path fill-rule="evenodd" clip-rule="evenodd" d="M93.788 109.475C99.9744 109.262 106.161 109.05 112.354 108.993C115.71 108.962 119.048 109.02 122.399 109.213C123.885 109.298 125.371 109.38 126.858 109.443C127.114 109.454 127.469 109.436 127.86 109.417C128.781 109.372 129.905 109.317 130.434 109.596C133.392 111.161 127.365 111.333 126.632 111.321C124.991 111.293 123.352 111.212 121.713 111.131C120.281 111.06 118.848 110.989 117.414 110.954C108.215 110.728 98.9605 111.141 89.7461 111.553C87.6338 111.647 85.5236 111.741 83.4167 111.828C81.1798 111.92 78.9434 111.979 76.7073 112.038C73.5105 112.123 70.3142 112.208 67.1175 112.388C65.8969 112.456 64.6765 112.529 63.4561 112.602L63.456 112.602L63.456 112.602C61.7077 112.706 59.9594 112.81 58.2105 112.902C56.8413 112.974 55.4716 113.044 54.1005 113.079C53.8537 113.085 53.532 113.119 53.1809 113.157C52.3309 113.247 51.3081 113.357 50.7556 113.131C50.0909 112.859 49.5534 112.479 49.9188 111.673C50.2279 110.992 51.351 111.074 52.1699 111.134C52.3935 111.15 52.5944 111.164 52.7498 111.161C55.3669 111.111 57.9782 110.964 60.5905 110.804C61.5462 110.745 62.5016 110.685 63.4569 110.625C68.4301 110.312 73.3987 110 78.3846 109.915C83.5211 109.827 88.6544 109.651 93.788 109.475ZM126.098 150.19L127.877 150.169C128.795 150.249 129.206 151.213 128.616 151.954C128.165 152.521 126.427 152.547 125.294 152.564H125.294H125.294C124.981 152.568 124.713 152.572 124.532 152.587C121.576 152.824 118.625 152.931 115.659 152.96C109.414 153.019 103.192 153.287 96.9567 153.642C90.5742 154.006 84.1863 154.143 77.7981 154.28H77.798H77.798C73.098 154.381 68.3979 154.481 63.6997 154.672C61.0092 154.782 58.3185 154.864 55.6267 154.934C55.3375 154.942 54.9528 154.983 54.5176 155.03C52.8174 155.214 50.3468 155.481 49.7869 154.13C49.2902 152.932 49.9807 152.38 50.9906 152.129C50.831 151.42 50.8605 150.423 50.8774 149.851C50.8825 149.68 50.8865 149.547 50.8838 149.471C50.8584 148.755 50.8407 148.039 50.823 147.322C50.803 146.51 50.7829 145.699 50.7516 144.887C50.7233 144.151 50.6969 143.414 50.6705 142.676C50.5663 139.768 50.4619 136.852 50.238 133.955C50.1348 132.618 49.9709 131.296 49.8073 129.977C49.546 127.871 49.2855 125.77 49.2735 123.62C49.2713 123.233 49.252 122.749 49.2302 122.204C49.1184 119.412 48.9418 114.998 50.6747 113.654C53.7302 111.871 53.1262 117.018 52.8567 119.314C52.8122 119.694 52.7768 119.995 52.7685 120.175C52.5929 123.994 52.8311 127.645 53.2155 131.44C53.4749 134.003 53.3234 136.558 53.1716 139.117C53.1174 140.03 53.0632 140.945 53.0276 141.86C53.01 142.313 52.9944 142.766 52.9788 143.219C52.9307 144.612 52.8826 146.003 52.7776 147.395C52.7663 147.545 52.7625 147.834 52.7577 148.203C52.744 149.243 52.722 150.922 52.4994 151.94C52.9735 151.92 53.4335 151.925 53.8136 151.929H53.8136H53.8137C54.0559 151.932 54.2657 151.934 54.426 151.929C55.1554 151.907 55.8849 151.886 56.6143 151.864H56.6144H56.6144C58.769 151.801 60.9236 151.738 63.0778 151.657C68.1636 151.466 73.2506 151.402 78.3375 151.338H78.3377C84.3461 151.263 90.3544 151.187 96.3603 150.902C106.258 150.431 116.19 150.311 126.098 150.19ZM127.934 112.853C127.929 119.395 128.435 125.758 129.026 132.274C129.391 136.304 129.684 140.35 129.918 144.391C129.929 144.578 129.927 144.89 129.925 145.281V145.282C129.913 147.516 129.887 152.331 132.096 151.179C133.763 150.309 133.122 145.267 132.768 142.477C132.69 141.865 132.626 141.361 132.603 141.033C132.555 140.336 132.507 139.639 132.459 138.942L132.459 138.94C132.237 135.701 132.015 132.464 131.723 129.229L131.661 128.547C131.323 124.81 130.985 121.076 130.925 117.321C130.92 117.011 130.95 116.578 130.984 116.09C131.081 114.676 131.211 112.794 130.624 112.044C129.798 110.987 127.936 111.3 127.934 112.853Z" fill="#69A1AC"/>
<path fill-rule="evenodd" clip-rule="evenodd" d="M94.0708 128.891C101.973 125.316 109.966 121.699 118.183 119.124C118.777 118.939 119.153 119.551 119.018 120.065C118.879 120.594 117.593 121.046 116.741 121.346C116.486 121.435 116.27 121.511 116.135 121.572C114.987 122.084 113.836 122.591 112.685 123.097C111.507 123.615 110.329 124.134 109.153 124.659C106.71 125.751 104.264 126.838 101.818 127.925C99.1981 129.089 96.5785 130.253 93.9617 131.423C93.8627 131.468 93.7636 131.512 93.6646 131.556C97.2223 132.821 100.76 134.142 104.282 135.502C105.486 135.967 106.685 136.442 107.885 136.917C108.564 137.185 109.242 137.454 109.922 137.721C110.143 137.808 110.528 137.925 110.991 138.067C112.5 138.527 114.833 139.24 115.006 139.959C115.286 141.132 112.065 139.998 110.849 139.57C110.688 139.513 110.562 139.469 110.484 139.444C108.691 138.871 106.919 138.232 105.147 137.593L104.902 137.505C103.498 136.999 102.097 136.488 100.695 135.977C97.9568 134.979 95.2188 133.98 92.4659 133.022C92.0767 132.887 91.6873 132.752 91.2978 132.617C86.8797 134.602 82.4704 136.605 78.0754 138.641C75.7191 139.732 73.3752 140.849 71.0378 141.981C70.5277 142.228 69.896 142.609 69.2097 143.024C67.5648 144.018 65.6068 145.202 64.2598 145.172C63.5377 145.156 63.051 145.002 62.9755 144.126C62.8979 143.223 64.0569 142.749 64.8903 142.408C65.0897 142.327 65.2706 142.253 65.4113 142.182C67.9095 140.933 70.4232 139.715 72.944 138.513C77.9507 136.125 83.0042 133.832 88.0758 131.585C88.1051 131.572 88.1344 131.559 88.1637 131.546C85.3509 130.594 82.5302 129.665 79.7034 128.755C79.4212 128.664 78.8425 128.504 78.0818 128.293C74.4885 127.298 66.8335 125.178 67.1743 123.94C67.5649 122.523 74.7417 125.112 77.919 126.258C78.5145 126.473 78.9695 126.637 79.213 126.715C83.0118 127.926 86.8001 129.171 90.5686 130.472C91.7342 129.948 92.9015 129.42 94.0708 128.891Z" fill="#89C5CC"/>
<path fill-rule="evenodd" clip-rule="evenodd" d="M60.2134 160.005C62.5264 160.41 64.1579 162.629 63.9042 164.953C63.5612 168.092 60.4321 169.531 57.5414 169.122C54.2614 168.657 53.5715 165.884 55.1606 163.216C55.5125 162.626 55.9171 161.919 56.5566 161.608C56.9963 161.395 57.5565 161.584 57.9105 161.411C59.152 160.807 58.4056 159.845 60.2134 160.005ZM59.1603 157.954C56.3379 158.314 51.1229 161.58 51.387 164.848C51.616 165.227 51.9605 165.382 52.4203 165.313C52.3096 166.021 52.3456 166.721 52.5286 167.414C52.7966 168.314 53.3314 169.051 54.0481 169.636C55.524 170.843 57.5417 171.139 59.3795 170.927C62.8114 170.533 65.5162 168.187 65.709 164.618C65.8971 161.134 62.8558 157.487 59.1603 157.954Z" fill="#89C5CC"/>
<path fill-rule="evenodd" clip-rule="evenodd" d="M72.8304 162.206C71.5641 162.877 69.5608 163.908 68.8181 165.183C68.0336 166.529 68.846 168.002 70.4989 167.365C71.8111 166.86 72.6458 165.253 74.0455 164.738C75.2808 164.284 75.7786 164.515 77.0841 164.968C78.4294 165.434 79.6052 165.884 81.0594 165.77C82.8872 165.626 84.4701 164.567 86.2592 164.326C87.7654 164.122 89.0076 164.709 90.4502 164.942C92.1239 165.212 93.2181 164.579 94.7841 164.249C95.8492 164.024 97.7265 164.938 98.5034 164.596C100.25 163.828 98.4024 162.889 97.4353 162.579C95.8063 162.056 94.8038 162.517 93.2544 162.951C91.5721 163.421 90.8455 163.067 89.2374 162.635C85.984 161.761 83.4706 163.875 80.3868 163.491C77.5316 163.135 75.8232 160.621 72.8304 162.206Z" fill="#89C5CC"/>
<path fill-rule="evenodd" clip-rule="evenodd" d="M126.029 160.644C129.161 163.58 125.643 167.757 122.19 165.411C120.975 164.585 120.955 163.259 121.901 162.072C122.766 160.986 124.666 160.563 126.029 160.644ZM124.868 158.272C121.943 158.841 119.183 160.183 118.918 163.56C118.66 166.854 122.039 168.384 124.878 168.168C131.251 167.683 130.791 157.127 124.868 158.272Z" fill="#89C5CC"/>
</g>
<g opacity="0.5">
<path fill-rule="evenodd" clip-rule="evenodd" d="M221.973 24.0318C213.548 24.1264 205.128 24.4372 196.721 24.9693C188.725 25.4759 180.05 25.0913 172.185 26.6412C169.952 27.081 166.935 29.1165 169.905 31.3553C171.992 32.9293 179.628 31.1187 182.121 30.9656C191.3 30.4015 200.484 29.7256 209.676 29.4009C218.378 29.0933 227.079 28.9848 235.785 28.898C237.114 28.8851 239.321 28.4587 240.645 28.8447C242.546 29.3995 242.095 29.5503 242.238 31.9644C242.496 36.3384 242.424 40.7283 242.338 45.1065C242.254 49.3433 242.097 53.5795 242.112 57.8181C242.123 60.8423 241.156 66.8515 242.674 69.4776C244.858 73.2579 247.124 69.152 247.287 66.64C247.6 61.8355 247.46 56.972 247.461 52.1614C247.462 47.6459 247.494 43.1303 247.335 38.6171C247.22 35.3568 247.686 29.6658 245.93 26.702C244.141 23.6834 239.834 24.3343 236.692 24.1905C231.79 23.965 226.879 23.9808 221.973 24.0318Z" fill="#89C5CC"/>
<path fill-rule="evenodd" clip-rule="evenodd" d="M168.373 29.4806C168.383 37.9648 167.401 46.3923 167.126 54.8668C167 58.763 166.744 63.0415 167.73 66.8663C168.725 70.7282 171.885 71.5651 172.249 67.2537C172.986 58.5232 172.805 49.4703 173.379 40.6697C173.582 37.5626 174.9 31.8683 173.669 28.9587C172.585 26.3957 168.369 25.9045 168.373 29.4806Z" fill="#89C5CC"/>
<path fill-rule="evenodd" clip-rule="evenodd" d="M247.37 66.8778C232.74 68.8145 217.445 68.1085 202.711 68.4128C195.642 68.5589 188.574 68.5682 181.504 68.642C179.037 68.6675 172.771 67.729 170.636 69.1161C167.238 71.3242 170.925 73.0281 173.175 73.0768C187.127 73.3825 201.234 72.7409 215.184 72.2831C221.451 72.0776 227.739 71.9769 233.99 71.4443C237.838 71.1164 242.043 70.7986 245.78 69.7646C246.576 69.5438 248.309 69.5897 248.488 68.5037C248.598 67.832 248.398 66.7358 247.37 66.8778Z" fill="#89C5CC"/>
<path fill-rule="evenodd" clip-rule="evenodd" d="M186.534 79.2103C182.468 79.2339 170.215 77.3454 168.531 81.3103C166.286 86.5983 175.044 85.3638 177.399 85.3035C182.748 85.1662 188.094 85.1514 193.445 85.1537C198.695 85.156 203.945 85.1221 209.194 84.9974C210.715 84.9607 214.255 85.5921 215.129 83.7606C215.794 82.3689 215.269 81.2709 214.043 80.5342C211.092 78.7608 203.427 79.7892 199.972 79.6296C195.5 79.4237 191.012 79.2103 186.534 79.2103Z" fill="#89C5CC"/>
<path fill-rule="evenodd" clip-rule="evenodd" d="M236 80.1893C233.677 80.3275 228.976 79.3696 226.895 80.4328C224.529 81.6417 225.362 83.5344 227.405 84.3662C228.82 84.9419 234.622 84.6399 236 83.9728C237.437 83.277 239.061 80.001 236 80.1893Z" fill="#89C5CC"/>
<path fill-rule="evenodd" clip-rule="evenodd" d="M261.476 30.3129C258.995 30.9939 259.748 45.0837 259.684 47.3174C259.508 53.4371 258.82 61.134 260.854 67.0278C262.151 70.7848 264.641 70.2755 264.217 66.3199C263.844 62.8481 263.205 59.4162 262.928 55.9217C262.302 48.0146 261.45 39.5806 262.042 31.667C262.293 32.1267 264.648 36.3917 265.202 36.0735C265.034 36.1728 262.486 30.0466 261.476 30.3129Z" fill="#89C5CC"/>
<path fill-rule="evenodd" clip-rule="evenodd" d="M289.394 25.1235C284.371 25.1978 279.348 25.2868 274.327 25.426C270.335 25.5373 264.062 24.8814 260.4 26.5607C256.041 28.5601 258.109 33.0153 262.204 33.1095C265.826 33.193 269.689 32.376 273.344 32.2508C283.218 31.9126 293.108 31.8407 302.986 31.7563C311.919 31.6793 321.232 32.6321 330.087 31.2905C331.401 42.9533 327.848 54.6652 329.057 66.4621C329.244 68.293 329.16 70.8802 331.492 71.2972C334.434 71.8237 334.555 68.9091 334.667 66.822C334.986 60.8629 334.813 54.899 335.249 48.932C335.654 43.4023 336.45 37.7507 335.777 32.2123C334.95 25.3968 331.684 25.9432 325.911 25.6598C313.718 25.0618 301.6 24.9445 289.394 25.1235Z" fill="#89C5CC"/>
<path fill-rule="evenodd" clip-rule="evenodd" d="M272.561 66.5366C270.002 66.6011 265.751 65.8125 264.112 68.2665C262.405 70.8197 264.43 73.0469 266.911 73.5711C269.847 74.1913 273.676 73.341 276.724 73.3317C279.898 73.3224 283.073 73.3577 286.247 73.3702C299.855 73.4236 313.522 73.6295 327.12 73.0668C329.019 72.9884 334.409 73.6254 335.724 71.8037C336.89 70.1879 336.074 68.7387 334.538 67.9158C332.018 66.5654 326.841 67.0789 324.038 66.9717C320.576 66.84 317.11 66.7969 313.646 66.743C299.975 66.532 286.232 66.1984 272.561 66.5366Z" fill="#89C5CC"/>
<path fill-rule="evenodd" clip-rule="evenodd" d="M284.073 78.3406C278.98 78.4273 273.547 78.2037 268.505 78.9761C264.072 79.6553 263.526 83.9407 268.298 84.4422C272.684 84.9033 278 84.0418 282.407 83.7589C283.973 83.6582 285.793 83.8011 286.543 82.0707C287.326 80.263 285.829 78.5294 284.073 78.3406Z" fill="#89C5CC"/>
<path fill-rule="evenodd" clip-rule="evenodd" d="M322.572 78.7904C319.854 78.8581 311.914 77.6896 310.568 80.794C308.327 85.9627 319.075 83.999 321.137 83.9229C323.735 83.8274 333.863 85.3448 333.866 81.2077C333.868 77.151 325.061 78.7287 322.572 78.7904Z" fill="#89C5CC"/>
<path fill-rule="evenodd" clip-rule="evenodd" d="M167.934 104.474C167.94 113.877 167.355 123.367 168.213 132.746C168.567 136.625 168.507 144.056 170.754 147.344C172.348 149.679 174.56 149.515 175.432 146.712C176.014 144.838 175.082 141.091 174.979 139.086C174.878 137.163 174.762 135.24 174.673 133.316C174.444 128.358 174.462 123.409 174.53 118.449C174.589 114.194 175.613 108.566 174.647 104.474C173.747 100.661 167.934 99.7691 167.934 104.474Z" fill="#69A1AC"/>
<path fill-rule="evenodd" clip-rule="evenodd" d="M262.43 96.2022C246.117 96.6114 229.768 96.2458 213.469 97.0535C205.431 97.4515 197.425 98.3259 189.427 99.1976C185.498 99.6262 181.571 100.068 177.648 100.551C176.465 100.697 166.629 101.078 170.328 104.819C171.944 106.452 177.084 104.746 179.118 104.505C183.056 104.04 187.002 103.635 190.946 103.218C198.45 102.424 205.964 101.672 213.5 101.255C231.25 100.272 249.072 100.567 266.839 99.9111C271.645 99.7339 276.437 99.6067 281.245 99.796C282.507 99.8457 291.784 100.317 287.756 96.8907C285.852 95.2698 278.671 96.1062 276.29 96.0575C271.671 95.9619 267.048 96.0863 262.43 96.2022Z" fill="#69A1AC"/>
<path fill-rule="evenodd" clip-rule="evenodd" d="M284.669 112.044C284.588 107.699 284.508 103.355 284.31 99.0146C284.102 94.4434 290.328 93.7508 292.175 97.4508C293.504 100.115 293.27 104.647 293.07 108.532C292.989 110.097 292.914 111.558 292.949 112.748C293.028 115.477 293.229 118.298 293.432 121.157C293.944 128.35 294.472 135.782 293.128 142.572C292.474 145.872 289.69 147.607 287.837 145.808C287.835 145.812 287.832 145.815 287.83 145.819C287.133 146.846 284.963 146.844 283.366 146.842C282.926 146.842 282.529 146.841 282.218 146.863C277.841 147.16 273.545 147.662 269.207 148.312C260.563 149.608 251.994 150.404 243.256 150.621C237.328 150.767 231.391 150.816 225.452 150.866C214.081 150.96 202.703 151.055 191.368 151.832C187.546 152.095 183.782 152.545 180.023 153.264C179.703 153.326 179.348 153.405 178.97 153.489C176.174 154.11 172.128 155.01 171.852 151.104C171.523 146.468 181.571 145.861 186.742 145.548C187.531 145.5 188.207 145.46 188.715 145.412C204.415 143.952 220.362 144.178 236.13 144.402C236.894 144.413 237.657 144.423 238.42 144.434C239.651 144.451 240.881 144.471 242.111 144.492C248.861 144.603 255.604 144.714 262.353 144.301C265.424 144.113 268.535 144.017 271.652 143.92C276.625 143.766 281.613 143.611 286.476 143.084C285.743 140.24 285.615 136.884 285.494 133.721C285.447 132.489 285.401 131.287 285.32 130.155C284.893 124.126 284.781 118.085 284.669 112.044Z" fill="#69A1AC"/>
<path fill-rule="evenodd" clip-rule="evenodd" d="M297.871 102.363C295.668 102.663 293.829 104.549 294.813 106.941C296.053 109.953 299.744 108.776 302.182 108.586C309.932 107.978 318.024 109.191 325.68 108.276C327.771 108.026 330.805 106.887 328.927 104.077C327.516 101.966 322.374 102.336 320.189 102.134C312.714 101.443 305.337 101.627 297.871 102.363Z" fill="#C1DEE2"/>
<path fill-rule="evenodd" clip-rule="evenodd" d="M310.952 115.504C307.946 115.706 300.949 115.547 299.683 118.967C297.411 125.102 306.31 122.94 309.019 122.591C312.167 122.186 319.587 123.271 321.263 120.219C324.26 114.761 313.588 115.322 310.952 115.504Z" fill="#C1DEE2"/>
<path fill-rule="evenodd" clip-rule="evenodd" d="M303.223 128.968C301.797 130.394 301.795 132.942 303.223 134.368C304.971 136.115 308.78 135.752 311.078 135.88C314.282 136.059 323.484 137.753 325.076 133.98C327.222 128.89 318.889 128.996 316.148 128.707C312.98 128.374 305.848 126.341 303.223 128.968Z" fill="#C1DEE2"/>
<path fill-rule="evenodd" clip-rule="evenodd" d="M190.901 41.8288C190.901 47.3018 199.449 47.3018 199.449 41.8288C199.449 36.3855 190.901 36.3024 190.901 41.8288Z" fill="#89C5CC"/>
<path fill-rule="evenodd" clip-rule="evenodd" d="M207.115 41.8909C207.115 48.1479 216.851 48.1354 216.851 41.8909C216.851 35.6557 207.115 35.5922 207.115 41.8909Z" fill="#89C5CC"/>
<path fill-rule="evenodd" clip-rule="evenodd" d="M197.306 50.2101C192.573 51.5169 196.933 55.5278 199.131 56.4439C202.624 57.9006 207.39 58.974 210.884 56.7905C212.274 55.9216 213.402 54.767 212.383 53.0807C211.298 51.2854 209.812 52.0838 208.16 52.2494C206.066 52.46 204.375 52.4276 202.353 51.7563C200.845 51.2553 198.952 49.7574 197.306 50.2101Z" fill="#89C5CC"/>
<path fill-rule="evenodd" clip-rule="evenodd" d="M283.154 42.1753C283.154 45.8772 288.902 45.8772 288.902 42.1753C288.902 38.4735 283.154 38.4735 283.154 42.1753Z" fill="#89C5CC"/>
<path fill-rule="evenodd" clip-rule="evenodd" d="M295.866 42.7325C295.866 46.8454 302.251 46.8459 302.251 42.7325C302.251 38.6192 295.866 38.6197 295.866 42.7325Z" fill="#89C5CC"/>
<path fill-rule="evenodd" clip-rule="evenodd" d="M295.393 51.6584C292.038 52.0907 282.337 53.0742 281.794 57.2088C280.957 63.5879 291.587 58.4252 294.013 57.9242C297.103 57.2863 299.863 57.4529 302.948 57.5767C304.641 57.6444 306.894 57.9191 306.717 55.3389C306.425 51.1021 298.325 51.2826 295.393 51.6584Z" fill="#89C5CC"/>
<path fill-rule="evenodd" clip-rule="evenodd" d="M211.055 110.485C208.624 111.133 205.443 115.337 207.116 117.909C209.859 122.128 211.069 115.65 212.217 115.027C214.305 113.892 216.001 118.038 218.184 115.863C221.628 112.432 213.224 109.904 211.055 110.485Z" fill="#69A1AC"/>
<path fill-rule="evenodd" clip-rule="evenodd" d="M238.914 107.366C236.031 107.392 229.944 111.475 229.512 114.489C229.256 116.28 230.444 118 232.374 118.024C235.003 118.056 235.839 114.638 238.117 113.924C240.576 113.153 240.211 114.928 242.334 115.848C243.887 116.522 245.83 116.24 246.37 114.33C247.388 110.727 241.877 107.309 238.914 107.366Z" fill="#69A1AC"/>
<path fill-rule="evenodd" clip-rule="evenodd" d="M216.843 124.624C212.231 127.327 219.82 133.119 222.45 133.844C226.422 134.937 234.415 132.897 235.356 128.045C235.731 126.114 234.523 124.366 232.392 124.711C230.638 124.996 229.512 127.197 227.887 127.985C225.694 129.049 223.744 128.976 221.88 127.375C220.362 126.07 219.549 123.046 216.843 124.624Z" fill="#69A1AC"/>
<path fill-rule="evenodd" clip-rule="evenodd" d="M220.186 164.556C216.065 165.434 211.877 164.845 207.737 165.671C203.515 166.514 200.992 168.109 197.069 166.502C196.885 166.424 196.701 166.346 196.517 166.268C193.481 164.961 190.299 164.573 187.121 166.657C185.241 167.89 179.532 172.156 180.22 174.759C181.711 180.402 188.135 171.553 189.773 170.691C192.896 169.047 195.038 171.147 198.254 171.74C202.105 172.451 205.205 170.415 208.833 169.605C213.077 168.656 217.851 168.326 222.168 167.819C223.874 167.618 230.335 168.967 230.918 166.844C231.92 163.198 221.805 164.212 220.186 164.556Z" fill="#C1DEE2"/>
<path fill-rule="evenodd" clip-rule="evenodd" d="M249.913 175.92C250.182 176.124 249.966 175.96 249.913 175.92V175.92ZM261.453 164.335C264.98 163.977 276.266 161.457 278.583 165.102C280.092 167.476 277.697 176.239 275.412 177.372C273.586 178.277 269.332 177.276 267.328 177.205C263.6 177.074 259.863 177.016 256.139 176.783C254.89 176.705 250.871 176.935 249.892 175.83C248.735 174.524 248.787 167.565 248.515 165.84C251.758 166.889 258.062 164.679 261.453 164.335ZM268.985 160.761C264.467 160.957 259.951 161.297 255.467 161.902C252.967 162.24 250.435 163.138 248.127 163.564C247.382 163.701 246.175 163.321 245.262 163.761C242.596 165.049 244.931 173.759 245.574 176.086C246.561 179.66 249.047 180.239 252.529 180.576C257.116 181.02 261.798 180.88 266.399 180.824C270.835 180.77 276.816 181.753 279.305 177.302C280.913 174.424 282.639 167.723 281.264 164.516C279.455 160.296 272.7 160.605 268.985 160.761Z" fill="#C1DEE2"/>
<path fill-rule="evenodd" clip-rule="evenodd" d="M319.575 178.314C319.333 178.624 319.333 178.624 319.575 178.314V178.314ZM320.564 177.121C320.49 177.234 320.143 177.6 320.564 177.121V177.121ZM309.791 176.793C311.782 176.418 313.774 176.047 315.768 175.684C313.88 178.326 311.892 177.234 308.667 177.004C309.042 176.933 309.416 176.863 309.791 176.793ZM300.29 175.858C300.795 175.689 301.299 175.52 301.804 175.351C301.789 175.735 301.872 176.095 302.052 176.43C301.188 176.337 300.324 176.237 299.462 176.13C299.738 176.039 300.014 175.948 300.29 175.858ZM295.887 172.607C295.859 171.913 296.902 172.389 297.5 172.343C296.347 173.357 295.81 173.445 295.887 172.607ZM311.633 164.742C311.785 164.549 311.985 164.558 312.235 164.771C311.963 164.863 310.912 165.308 311.633 164.742ZM321.844 163.541C321.871 163.541 322.437 164.306 321.844 163.541V163.541ZM321.558 163.291C321.706 163.404 321.706 163.404 321.558 163.291V163.291ZM320.283 163.142C322.371 163.494 322.212 165.944 320.283 163.142V163.142ZM295.754 162.975C295.33 163.327 295.475 162.985 295.754 162.975V162.975ZM303.739 157.758C300.194 157.965 293.688 157.757 290.728 159.645C286.865 162.11 288.897 170.596 289.243 174.316C289.754 179.815 292.341 181.38 297.519 181.957C303.699 182.646 310.049 182.775 316.26 182.611C321.855 182.464 325.041 180.54 326.065 174.65C326.379 172.848 327.176 170.06 327.151 168.334C327.134 167.136 326.537 166.59 326.311 165.572C325.026 159.775 322.878 159.088 316.936 158.835C312.563 158.649 308.03 157.534 303.739 157.758Z" fill="#89C5CC"/>
</g>
<path opacity="0.2" fill-rule="evenodd" clip-rule="evenodd" d="M479.143 7.22534C481.25 6.18057 484.059 7.39227 482.887 10.1542C481.632 13.1118 476.992 13.1484 474.371 13.0898C474.633 13.076 475.478 10.3638 475.767 9.95399C476.62 8.74499 477.848 7.8688 479.143 7.22534ZM454.883 61.1155C454.139 61.7518 454.823 61.1752 454.883 61.1155V61.1155ZM481.592 20.9572C482.852 21.9107 482.911 23.5953 481.881 24.7361C480.655 26.0943 478.416 26.046 476.745 25.9145C475.989 25.855 471.953 25.537 472.91 24.8824C472.837 24.91 472.683 24.9769 472.519 25.0677C472.43 25.3881 472.337 25.7073 472.24 26.0251C472.263 26.0388 472.284 26.0535 472.309 26.0672C472.282 26.0553 472.262 26.0424 472.238 26.0303C471.266 29.2066 469.883 32.2312 468.072 35.0612C468.749 34.7969 469.45 34.5967 470.161 34.5074C472.267 34.2426 476.696 35.8608 474.339 38.6385C472.079 41.3012 468.565 38.4475 466.002 38.055C463.514 41.4924 460.772 44.7869 457.898 47.9713C458.074 48.0258 458.228 48.1395 458.317 48.3166C459.469 47.737 460.67 46.9081 461.737 46.6833C463.276 46.3594 466.432 46.1619 467.595 47.5255C469.024 49.2023 467.49 50.5656 465.8 50.8882C463.349 51.3561 460.141 50.1718 457.783 49.3717C457.513 49.4191 457.219 49.3411 457.043 49.1275C456.991 49.1106 456.939 49.094 456.888 49.0778C453.977 52.2468 450.956 55.3112 447.952 58.3085C447.984 58.3068 448.016 58.3049 448.05 58.3031C448.833 57.7941 449.673 57.3764 450.583 57.1573C452.69 56.6479 455.168 56.6442 456.876 58.1525C458.578 59.6543 459.179 62.282 457.417 63.9703C453.89 67.3497 448.7 59.6511 446.922 59.3306C443.87 62.3446 440.643 65.1608 437.365 67.9202C437.737 67.8078 438.119 67.7252 438.513 67.6879C441.726 67.3817 449.265 71.2786 445.32 75.1184C441.883 78.4645 437.909 72.0295 435.141 69.7797C432.053 72.3517 428.947 74.906 425.929 77.5598C427.575 77.1262 429.165 77.0617 430.929 77.5886C432.754 78.1347 435.698 79.4982 434.543 81.9393C433.368 84.4219 429.832 83.2943 427.99 82.5072C426.986 82.078 424.972 80.6285 423.204 80.0184C418.387 84.5222 414.215 89.4823 411.055 95.3245C409.082 98.9721 407.584 102.869 406.53 106.874C405.856 109.43 404.53 113.723 404.793 117.05C403.533 110.392 405.822 102.393 408.286 96.4403C410.551 90.9662 413.94 86.16 417.909 81.8333C416.915 78.8689 408.539 74.597 413.549 71.8399C416.209 70.3821 418.932 72.7974 419.512 75.3566C419.91 77.1152 419.301 79.3254 418.654 81.0329C419.903 79.7139 421.201 78.4373 422.538 77.2031C424.386 75.4972 426.278 73.8408 428.188 72.2053C425.043 69.2793 422.07 60.9117 426.289 59.5408C432.52 57.5222 429.515 68.9396 429.079 71.0794C428.956 71.0867 428.859 71.0498 428.789 70.9707C428.824 71.1666 428.864 71.3761 428.913 71.5874C432.57 68.4733 436.28 65.4204 439.868 62.2321C439.545 61.9957 439.032 61.0921 438.629 60.6112C437.718 59.5272 436.847 58.3948 436.21 57.1264C435.205 55.122 434.236 51.9246 436.904 50.744C439.806 49.4577 441.183 53.0739 441.203 55.2316C441.216 56.7238 440.804 58.1416 440.59 59.6044C440.523 60.0606 440.779 62.1168 440.152 61.2325C440.182 61.5587 440.186 61.7949 440.171 61.9623C440.815 61.3871 441.454 60.8055 442.09 60.2198C442.06 60.1459 442.038 60.0654 442.034 59.9719C442 59.3287 442.654 59.0806 443.112 59.2688C443.95 58.4799 444.78 57.681 445.595 56.8664C447.323 55.1404 449.076 53.3652 450.817 51.5522C450.439 51.2312 450.59 50.7864 450.237 50.4457C449.885 50.1057 449.191 49.9179 448.776 49.6021C447.734 48.8074 446.87 47.6493 446.246 46.5094C445.215 44.6259 443.883 40.6745 446.899 39.775C450.007 38.8465 451.582 42.65 451.781 45.0284C451.82 45.4892 451.469 49.6413 451.202 51.1491C454.423 47.7797 457.591 44.2841 460.461 40.7277C459.592 40.7202 457.126 38.9566 456.628 38.4752C455.412 37.3012 453.48 34.7067 455.613 33.3321C457.51 32.1129 459.846 33.8762 460.656 35.5906C460.79 35.8729 461.258 38.5009 461.294 39.68C462.482 38.1719 463.616 36.655 464.67 35.1332C465.373 34.1215 466.031 33.083 466.646 32.0226C466.498 31.9396 466.359 31.7949 466.227 31.6149C463.065 31.085 459.036 26.2003 462.751 24.4982C464.52 23.6889 466.437 25.3567 467.303 26.7226C467.48 27.002 467.767 28.4072 468.001 29.5156C469.77 26.0025 471.123 22.2836 472.153 18.4706C471.878 18.4031 471.644 18.1949 471.614 17.8367C470.079 16.9706 468.867 16.2494 467.796 14.583C467.131 13.5479 465.933 11.1829 467.889 10.6072C470.436 9.85817 472.033 13.7088 472.241 15.6057C472.265 15.8259 472.264 16.4663 472.255 17.0532C472.343 17.0413 472.433 17.0426 472.52 17.0579C473.106 14.6969 473.574 12.3056 473.947 9.91033C472.557 9.46807 472.321 2.24018 473.246 1.21053C475.316 -1.09499 476.773 2.23318 476.662 3.99264C476.53 6.06721 475.58 7.95479 474.449 9.63014C474.328 9.80756 474.362 9.79893 474.331 9.55188C474.314 9.67401 474.272 9.76415 474.211 9.82947C474.269 10.9214 474.382 12.0394 474.327 13.0057C474.169 15.773 473.842 18.5564 473.368 21.2883C473.253 21.9527 473.121 22.6117 472.973 23.265C474.09 22.322 475.597 21.4839 476.186 21.2217C477.716 20.542 480.074 19.8078 481.592 20.9572ZM404.543 116.787C404.617 117.676 404.836 118.488 405.268 119.153C404.951 118.393 404.713 117.601 404.543 116.787Z" fill="#C1DEE2"/>
<g opacity="0.5">
<path opacity="0.5" fill-rule="evenodd" clip-rule="evenodd" d="M459.945 97.8344C462.467 94.2388 467.147 85.1071 470.696 83.8223C472.982 82.9948 472.315 91.555 472.344 93.1873C472.453 99.5022 471.839 105.777 471.079 112.039C469.712 123.332 465.239 133.39 459.105 143.002C455.948 147.948 452.246 152.953 447.118 156.039C444.757 157.461 441.917 157.698 439.586 158.923C436.871 160.348 438.349 159.196 437.126 162.025C435.427 165.953 434.883 171.02 434.097 175.211C430.487 194.451 421.748 296.156 423.263 315.726C423.398 317.461 420.979 317.876 420.859 315.758C420.217 304.53 425.77 226.775 428.572 201.347C431.374 175.919 434.209 153.454 437.052 144.657C440.501 133.984 446.73 121.149 451.915 111.196C454.323 106.572 456.949 102.107 459.945 97.8344Z" fill="#69A1AC"/>
<path opacity="0.5" fill-rule="evenodd" clip-rule="evenodd" d="M478.662 222.548C485.224 217.73 492.326 226.822 486.389 231.64C483.106 234.303 479.675 233.356 477.743 231.137C476.489 232.665 475.315 234.264 474.187 235.614C470.75 239.728 467.503 243.94 464.398 248.251C457.95 257.206 452.424 266.666 446.646 275.954C440.944 285.12 435.288 294.334 430.12 303.732C425.742 311.695 419.906 321.063 418.407 329.793C420.681 311.279 429.311 293.483 439.588 277.161C449.781 260.974 461.479 243.295 477.262 230.52C475.656 228.158 475.611 224.786 478.662 222.548Z" fill="#C1DEE2"/>
<path opacity="0.5" fill-rule="evenodd" clip-rule="evenodd" d="M354.148 177.395C357.82 178.113 363.82 186.42 366.847 189.584C370.444 193.345 373.707 197.354 376.784 201.554C383.406 210.595 389.329 220.207 394.365 230.23C402.575 246.571 409.153 263.345 413.927 281.138C416.849 292.031 418.741 303.32 419.862 314.531C420.074 316.645 422.29 332.945 419.096 333.384C416.224 333.78 417.111 321.007 416.972 319.27C415.406 299.669 410.713 280.597 404.185 262.121C402.763 258.097 401.442 253.167 399.168 249.545C397.53 246.937 399.156 247.846 396.278 246.859C393.807 246.011 390.992 246.218 388.462 245.18C382.965 242.926 378.563 238.549 374.705 234.147C367.207 225.593 361.265 216.338 358.168 205.376C356.45 199.298 354.871 193.184 353.995 186.919C353.768 185.299 351.783 176.932 354.148 177.395Z" fill="#69A1AC"/>
<path opacity="0.5" fill-rule="evenodd" clip-rule="evenodd" d="M368.639 39.191C382.47 63.1782 393.836 89.5276 401.175 116.215C405.622 132.385 408.732 148.978 411.821 165.451C416.605 190.957 421.13 216.461 422.417 242.421C423.712 268.53 426.273 298.645 417.724 323.792C421.994 298.261 417.928 271.084 417.208 245.394C416.864 233.13 415.867 220.985 414.56 208.793C413.291 196.966 411.217 185.195 409.287 173.46C408.346 167.745 407.359 162.039 406.353 156.336C406.053 154.634 405.926 149.585 404.847 148.423C403.76 147.253 398.218 146.776 396.477 145.918C392.973 144.188 389.677 141.732 386.76 139.137C381.168 134.162 376.303 127.662 372.464 121.254C363.58 106.427 360.028 88.3327 360.207 71.1613C360.242 67.8274 365.603 31.9265 363.45 31.4321C363.58 31.2803 363.702 31.1235 363.818 30.9604C365.448 33.69 367.048 36.4381 368.639 39.191Z" fill="#89C5CC"/>
<path opacity="0.5" fill-rule="evenodd" clip-rule="evenodd" d="M517.926 125.703C518.139 125.395 519.528 123.254 518.829 123.391C520.253 123.112 516.87 125.752 520.418 124.132C518.733 125.724 519.706 127.79 519.728 129.932C519.765 133.409 519.183 136.857 518.528 140.26C517.494 145.638 515.952 150.867 513.715 155.869C508.838 166.77 500.557 177.264 490.726 184.08C485.873 187.445 481.116 188.59 475.581 190.139C472.085 191.118 471.808 192.927 469.952 196.319C466.088 203.386 462.293 210.427 458.886 217.731C454.817 226.454 450.868 235.186 447.142 244.062C434.591 273.961 424.375 304.937 419.01 336.993C418.879 318.102 423.249 298.646 428.761 280.64C432.777 267.521 438.004 254.875 443.58 242.357C444.931 239.324 446.978 235.423 447.552 232.075C447.954 229.729 446.726 227.473 446.163 225.002C443.971 215.378 444.128 204.597 446.053 194.922C448.176 184.253 454.315 179.302 464.699 177.79C468.497 177.238 473.324 177.44 476.807 175.821C480.601 174.057 482.166 168.261 484.324 164.54C490.118 154.546 497.004 144.96 504.91 136.538C507.099 134.206 509.453 132.055 511.95 130.061C513.525 128.803 516.852 127.253 517.926 125.703Z" fill="#89C5CC"/>
<path opacity="0.5" fill-rule="evenodd" clip-rule="evenodd" d="M401.48 316.592H438.334C439.992 316.592 441.335 317.935 441.335 319.592C441.335 319.738 441.324 319.885 441.303 320.03L438.454 339.345C437.586 345.233 432.533 349.595 426.581 349.595H413.233C407.282 349.595 402.229 345.233 401.36 339.345L398.512 320.03C398.27 318.39 399.403 316.865 401.042 316.624C401.187 316.602 401.334 316.592 401.48 316.592Z" fill="#C1DEE2"/>
</g>
<path fill-rule="evenodd" clip-rule="evenodd" d="M45.608 189L73.5874 285.415L86.7475 357.804H99.9562L86.771 189H45.608Z" fill="#E8B88C"/>
<path fill-rule="evenodd" clip-rule="evenodd" d="M33.0338 189C34.9861 239.087 34.2161 266.406 33.7792 270.956C33.3422 275.507 30.8616 305.984 13.9581 359.332H27.6964C50.0823 308.154 57.897 277.677 60.4645 270.956C63.032 264.236 70.615 236.917 81.6858 189H33.0338Z" fill="#E8B88C"/>
<path fill-rule="evenodd" clip-rule="evenodd" d="M45.0073 189C52.2852 222.177 64.8728 275.135 82.7701 347.874H102.089C103.516 273.214 97.4462 224.075 86.9341 189H45.0073Z" fill="#BBC6C6"/>
<path fill-rule="evenodd" clip-rule="evenodd" d="M32.936 189C34.8481 239.087 29.8929 288.432 14.5437 348.654H35.1564C57.5834 298.24 73.6576 249.138 84.6433 189H32.936Z" fill="#DCE2E2"/>
<path fill-rule="evenodd" clip-rule="evenodd" d="M11.9999 369.261L12.7579 357.04C17.1961 358.338 22.755 357.829 29.4346 355.513C36.6168 360.6 45.6583 364.074 56.559 365.934C57.3907 366.076 57.9498 366.866 57.8079 367.697C57.7987 367.751 57.7866 367.804 57.7717 367.857L56.7238 371.553H29.4346H13.5159L11.9999 369.261Z" fill="#191847"/>
<path fill-rule="evenodd" clip-rule="evenodd" d="M83.799 369.261L84.557 357.04C88.9952 358.338 94.5541 357.829 101.234 355.513C108.416 360.6 117.457 364.074 128.358 365.934C129.19 366.076 129.749 366.866 129.607 367.697C129.598 367.751 129.586 367.804 129.571 367.857L128.523 371.553H101.234H85.315L83.799 369.261Z" fill="#191847"/>
<path fill-rule="evenodd" clip-rule="evenodd" d="M224.118 117.223C225.12 111.366 227.769 105.742 232.994 101.906C248.048 90.8537 261.666 111.786 257.751 121.389C253.835 130.993 235.255 145.9 229.764 142.38C227.574 140.976 225.25 136.013 224.202 129.851L207.392 148.438L193.903 133.696L224.118 117.223Z" fill="#FFDBBA"/>
<path fill-rule="evenodd" clip-rule="evenodd" d="M231.807 91.4584C231.881 90.5515 232.371 89.6777 232.856 88.8699C233.361 88.0309 233.878 87.1922 234.484 86.4069C235.694 84.8379 237.408 83.3871 239.47 83.3964C241.124 83.404 242.627 84.2401 243.72 85.2598C244.448 85.9391 245.023 86.7823 245.415 87.6917C245.804 88.5941 245.86 89.6068 246.171 90.5372C247.804 89.2061 249.721 88.0418 251.787 87.6397C253.774 87.2529 255.577 87.7879 256.982 88.944C258.424 90.1306 259.306 91.7589 259.708 93.5709C259.809 94.0246 259.898 94.4826 259.951 94.9483C259.996 95.3382 260.013 95.7681 260.2 96.1117C260.409 96.4949 260.749 96.4854 261.185 96.481C261.696 96.4758 262.201 96.5304 262.691 96.6253C264.857 97.0452 266.792 98.3604 267.532 100.338C267.874 101.249 268.004 102.305 267.773 103.313C267.568 104.211 266.916 105.278 267.029 106.184C267.077 106.568 267.459 106.546 267.826 106.623C268.378 106.738 268.942 106.816 269.491 106.941C270.262 107.117 270.982 107.404 271.611 107.831C272.532 108.455 273.486 109.588 272.574 110.757C272.232 111.196 271.723 111.51 271.274 111.84C270.659 112.292 270.042 112.743 269.419 113.185C268.946 113.521 268.479 113.835 267.976 114.123C267.707 114.277 267.16 114.511 267.013 114.797C266.829 115.155 267.476 115.545 267.673 115.78C268.061 116.242 268.386 116.762 268.557 117.347C268.69 117.802 268.763 118.335 268.491 118.804C268.324 119.091 268.054 119.28 267.769 119.452C267.426 119.657 267.316 119.845 267.045 120.136C267.912 120.466 270.518 121.946 269.598 123.184C269.291 123.596 268.674 123.766 268.211 123.889C267.398 124.105 266.558 124.198 265.736 124.262C264.021 124.396 262.317 124.266 260.681 123.96C261.165 125.526 259.853 127.148 258.03 126.975C257.226 126.899 256.609 126.404 256.144 125.844C255.974 125.639 255.796 125.286 255.617 125.163C255.521 125.096 255.363 125.071 255.249 124.963C254.499 124.251 253.913 123.228 253.417 122.333C252.532 120.739 252.063 118.917 252.158 117.028C252.182 116.543 252.136 116.198 251.81 115.849C251.524 115.542 251.155 115.316 250.864 115.014C250.094 114.216 249.851 113.116 249.444 112.115C248.295 113.001 246.81 113.737 245.431 114.157C244.306 114.499 243.535 113.884 242.822 113.243C240.542 111.191 238.737 108.724 236.678 106.48C238.137 109.102 239.974 111.535 241.321 114.217C241.93 115.43 240.54 115.283 239.668 115.281C238.231 115.277 236.762 115.612 235.382 116.149C235.906 113.823 235.173 111.11 233.189 109.832C230.997 108.419 227.125 109.388 226.269 112.194C225.773 113.823 226.469 115.423 226.926 116.856C225.294 116.813 223.789 117.739 222.23 118.2C221.461 118.427 220.532 118.619 219.853 118.249C219.602 118.112 219.385 117.887 219.07 117.877C218.68 117.866 218.398 118.022 217.989 117.932C216.358 117.572 215.015 115.993 215.18 114.315C215.329 112.798 216.89 111.845 218.369 111.759C217.884 110.318 216.749 107.906 218.884 106.841C216.977 104.441 215.913 95.6067 221.585 96.2034C221.078 93.6793 222.162 90.0528 225.331 89.2767C227.772 88.679 230.279 89.9606 231.807 91.4584Z" fill="#D04002"/>
<path fill-rule="evenodd" clip-rule="evenodd" d="M119.226 172.396L152.514 277.2L168.639 366.329H181.282L164.243 172.396H119.226Z" fill="#1A1A1E"/>
<path fill-rule="evenodd" clip-rule="evenodd" d="M107.318 172.396C109.578 229.939 106.918 259.621 106.412 264.849C105.906 270.077 98.9763 303.976 82.5723 368.084L96.0447 363.628C121.97 304.831 130.804 274.273 133.778 266.552C136.751 258.832 144.648 227.446 157.469 172.396H107.318Z" fill="#1A1A1E"/>
<path fill-rule="evenodd" clip-rule="evenodd" d="M85.3122 362.69C84.2526 362.248 83.0089 362.713 82.6094 363.789C81.9775 365.493 81.1891 367.894 81.1891 369.275C81.1891 371.579 81.9863 376 81.9863 376C84.762 376 131.878 376 131.878 376C131.878 376 133.823 369.808 129.633 369.314C125.443 368.821 122.671 368.423 122.671 368.423L99.5709 358.505C99.063 358.287 98.4746 358.522 98.2571 359.03L96.8136 362.402C96.8136 362.402 92.9347 364.145 90.5096 364.145C89.0902 364.145 86.8916 363.35 85.3122 362.69Z" fill="#673506"/>
<path fill-rule="evenodd" clip-rule="evenodd" d="M168.463 362.69C167.403 362.248 166.159 362.713 165.76 363.789C165.128 365.493 164.34 367.894 164.34 369.275C164.34 371.579 165.137 376 165.137 376C167.913 376 215.029 376 215.029 376C215.029 376 216.973 369.808 212.783 369.314C208.593 368.821 205.822 368.423 205.822 368.423L182.721 358.505C182.214 358.287 181.625 358.522 181.408 359.03L179.964 362.402C179.964 362.402 176.085 364.145 173.66 364.145C172.241 364.145 170.042 363.35 168.463 362.69Z" fill="#673506"/>
<path fill-rule="evenodd" clip-rule="evenodd" d="M278.535 186.529L247.623 170.642L243.656 186.171L272.987 193.4C282.143 201.162 287.073 204.245 287.778 202.649C288.373 201.303 287.588 200.227 286.865 199.236C286.301 198.464 285.776 197.743 285.969 196.987C286.41 195.259 291.693 194.709 296.729 194.392C301.766 194.076 299.994 192.145 298.634 191.257C293.109 189.03 286.409 187.454 278.535 186.529ZM209.312 242.194L203.865 208.926L188.57 215.205L200.256 242.06C199.33 253.749 199.742 259.385 201.494 258.968C202.971 258.616 203.392 257.367 203.779 256.217C204.081 255.321 204.362 254.485 205.107 254.179C206.809 253.481 210.453 257.205 213.754 260.882C217.055 264.558 217.591 262.038 217.508 260.462C216.026 254.883 213.294 248.794 209.312 242.194Z" fill="#FFDBBA"/>
<path fill-rule="evenodd" clip-rule="evenodd" d="M212.046 141.155C202.775 171.11 203.085 201.156 209.882 238.574L191.527 239.673C175.393 206.16 167.589 187.785 180.04 163.008C183.165 156.79 197.264 140.918 204.296 132.199L212.046 141.155Z" fill="url(#paint0_linear)"/>
<path fill-rule="evenodd" clip-rule="evenodd" d="M114.268 177.079L162.658 223.291C162.658 223.291 195.949 159.477 214.127 141.207C214.745 140.586 214.682 138.392 214.018 138.037C206.73 134.143 203.027 125.248 203.027 125.248C173.256 131.995 146.76 150.001 114.268 177.079Z" fill="#F2F2F2"/>
<path fill-rule="evenodd" clip-rule="evenodd" d="M187.247 163.847C162.652 202.169 135.983 227.299 119.298 211.365L93.4967 186.724C116.712 156.388 165.353 130.036 194.439 121.093C195.55 120.751 197.737 120.196 199.649 122.022L207.146 129.182C207.14 129.194 207.133 129.207 207.127 129.22C209.364 131.392 211.767 133.844 214.369 136.499C227.764 150.168 246.442 169.228 275.094 183.288L264.958 198.02C232.83 191.392 203.275 181.8 187.247 163.847Z" fill="url(#paint1_linear)"/>
<path fill-rule="evenodd" clip-rule="evenodd" d="M104.88 79.4178C102.009 74.3074 100.538 68.4462 102.139 62.5164C106.754 45.4311 130.122 53.9742 133.097 63.6383C136.072 73.3024 131.163 95.3718 124.793 95.7449C122.253 95.8937 117.402 93.3564 112.78 89.1681L111.503 113.092L92.0747 109.279L104.88 79.4178Z" fill="#E8B88C"/>
<path fill-rule="evenodd" clip-rule="evenodd" d="M122.317 62.84C119.391 63.7974 116.973 66.1927 114.003 69.3743C113.495 69.0501 112.92 68.8138 112.293 68.6908C109.61 68.1645 107.009 69.9123 106.483 72.5948C106.215 73.9566 106.534 75.2974 107.264 76.3565C105.829 77.7223 104.244 79.1322 102.465 80.559C97.7135 76.2708 95.5556 66.0668 102.482 57.9842C110.48 40.6411 133.334 56.8644 138.76 54.7395C138.518 61.555 134.071 66.2163 122.317 62.84Z" fill="#572A00"/>
<path fill-rule="evenodd" clip-rule="evenodd" d="M117.246 139.124L149.735 134.694C156.231 131.1 162.208 128.665 167.666 127.389C169.203 127.343 171.647 127.895 168.009 130.911C164.371 133.927 160.681 137.263 161.331 138.87C161.981 140.477 165.366 139.875 165.93 142.347C166.305 143.995 160.81 144.268 149.445 143.167L123.09 153.566L117.246 139.124ZM154.561 167.636L168.839 165.67C172.906 160.005 176.097 157.593 178.415 158.435C180.498 158.289 174.372 165.069 177.989 165.662C181.606 166.255 192.118 163.301 193.055 165.077C194.441 167.703 190.433 172.605 187.173 174.558C181.079 178.21 177.005 178.696 167.729 177.825C162.878 177.37 157.203 178.006 150.701 179.733L154.561 167.636Z" fill="#E8B88C"/>
<path fill-rule="evenodd" clip-rule="evenodd" d="M105.42 130.841C114.866 134.343 128.171 137.157 144.809 133.784L145.579 147.519C132.839 153.148 116.975 155.708 105.745 151.044C96.8953 147.369 96.4648 134.798 105.42 130.841Z" fill="url(#paint2_linear)"/>
<path fill-rule="evenodd" clip-rule="evenodd" d="M110.892 154.49C119.926 160.803 137.798 164.276 164.509 164.908C165.722 179.204 165.126 188.836 162.72 193.805C138.521 196.62 119.438 194.702 105.079 189.561C102.298 198.184 98.192 205.831 91.9252 211.855C79.0417 224.24 42.8038 194.333 27.7658 191.734C29.8939 159.942 51.2503 154.864 58.2291 136.671C65.8716 116.748 93.6141 92.1979 95.9685 93.0991L117.439 101.317C112.798 116.99 112.341 136.046 110.892 154.49Z" fill="url(#paint3_linear)"/>
<defs>
<linearGradient id="paint0_linear" x1="228.655" y1="172.437" x2="178.851" y2="204.168" gradientUnits="userSpaceOnUse">
<stop stop-color="#0084E9"/>
<stop offset="1" stop-color="#292DC2"/>
</linearGradient>
<linearGradient id="paint1_linear" x1="227.676" y1="143.166" x2="154.206" y2="225.087" gradientUnits="userSpaceOnUse">
<stop stop-color="#0084E9"/>
<stop offset="1" stop-color="#292DC2"/>
</linearGradient>
<linearGradient id="paint2_linear" x1="124.652" y1="130.279" x2="120.477" y2="151.814" gradientUnits="userSpaceOnUse">
<stop stop-color="#0084E9"/>
<stop offset="1" stop-color="#292DC2"/>
</linearGradient>
<linearGradient id="paint3_linear" x1="125.125" y1="108.009" x2="91.0101" y2="205.592" gradientUnits="userSpaceOnUse">
<stop stop-color="#0084E9"/>
<stop offset="1" stop-color="#292DC2"/>
</linearGradient>
</defs>
</svg>
