<svg width="587" height="372" viewBox="0 0 587 372" fill="none" xmlns="http://www.w3.org/2000/svg">
<g opacity="0.5">
<path fill-rule="evenodd" clip-rule="evenodd" d="M116.363 65.8628C116.609 60.5708 116.947 55.2863 117.126 49.9911C117.214 47.3672 117.283 44.743 117.35 42.1186C117.365 41.5342 117.38 40.9501 117.393 40.3657C117.436 38.3804 117.201 38.2179 119.199 38.0417C128.112 37.255 137.06 36.9942 145.984 36.2824C156.746 35.4239 167.564 34.8312 178.357 34.5655C183.153 34.4472 187.97 34.2022 192.767 34.3513C193.829 34.3843 195.916 34.1078 196.334 34.934C196.515 35.2909 196.136 36.519 196.088 36.9309C195.937 38.2174 195.797 39.5085 195.71 40.8014C195.2 48.4272 195.504 56.2453 196.981 63.7555C193.517 61.8022 189.14 60.122 185.103 60.4555C180.987 60.7954 177.908 63.1736 174.613 65.3625C172.749 66.6005 172.122 66.9261 170.262 65.7268C168.66 64.6931 167.144 63.5112 165.633 62.3513C163.3 60.5612 161.098 58.6203 158.836 56.7436C154.677 53.2931 148.947 48.3816 143.202 49.8277C139.098 50.8609 135.308 53.1166 131.745 55.3242C126.453 58.604 121.662 62.6205 116.363 65.8628ZM187.694 32.0011C167.245 32.0011 146.949 33.9835 126.558 35.0559C124.428 35.1678 122.306 35.3327 120.184 35.5375C118.77 35.674 115.311 35.1007 114.384 36.3092C113.766 37.1154 114.297 37.2364 114.384 38.0024C114.494 38.9679 114.429 40.1117 114.401 41.1336C114.333 43.5958 114.261 46.0578 114.205 48.5203C113.994 57.827 113.862 67.132 114.239 76.4363C114.321 78.4655 115.06 81.275 114.656 83.2468C114.363 84.6743 113.384 85.5431 115.642 85.8069C117.864 86.0666 120.58 85.4061 122.804 85.1946C125.04 84.9817 127.277 84.7507 129.516 84.5661C139.252 83.7639 149.082 83.8851 158.843 83.6185C168.693 83.3496 178.546 83.3323 188.398 83.3269C192.521 83.3247 197.231 83.5563 201.254 82.4218C202.669 82.0226 202.898 81.8259 202.549 80.4217C202.483 80.1553 202.055 80.057 201.93 79.5754C201.759 78.92 201.847 78.1234 201.807 77.4412C201.677 75.2131 201.631 72.981 201.526 70.7515C201.351 67.0263 200.709 63.4111 200.234 59.7234C199.686 55.4646 199.714 51.1405 199.703 46.8539C199.697 44.4762 199.758 42.1064 199.949 39.7354C200.071 38.2146 200.82 35.9442 200.44 34.526C200.251 33.8198 199.942 33.2598 199.207 32.956C198.741 32.7632 198.349 32.9141 197.889 32.8653C197.343 32.8073 197.003 32.7307 196.348 32.5825C193.546 31.9474 190.549 32.0011 187.694 32.0011Z" fill="#69A1AC"/>
<path fill-rule="evenodd" clip-rule="evenodd" d="M176.377 42.1259C176.376 43.6079 176.144 45.7949 176.828 47.1904C177.694 48.9605 178.779 48.4072 179.066 46.7438C179.23 45.7907 179.226 42.9701 178.92 42.1259C178.487 40.931 176.377 40.1172 176.377 42.1259Z" fill="#89C5CC"/>
<path fill-rule="evenodd" clip-rule="evenodd" d="M178.864 42.6979C177.472 42.747 173.42 42.413 172.479 43.5317C170.864 45.4505 173.675 45.7904 174.882 45.6829C176.279 45.5587 180.595 45.8619 181.531 44.7419C183.095 42.8682 179.958 42.658 178.864 42.6979Z" fill="#89C5CC"/>
<path fill-rule="evenodd" clip-rule="evenodd" d="M124.872 92.2085C130.988 93.271 129.085 102.597 123.297 100.437C121.281 99.6842 118.309 97.5093 119.424 94.9468C120.257 93.0322 122.97 92.0261 124.872 92.2085ZM122.339 89.3087C118.361 89.9784 115.641 94.2832 117.005 98.0382C118.321 101.661 123.312 104.314 126.992 103.012C130.506 101.769 132.259 97.094 131.074 93.6742C129.836 90.1011 125.804 88.7253 122.339 89.3087Z" fill="#89C5CC"/>
<path fill-rule="evenodd" clip-rule="evenodd" d="M159.544 93.2991C158.021 93.4256 156.705 94.4918 155.173 94.6806C153.74 94.8571 152.552 94.3668 151.211 93.9749C149.589 93.5015 148.102 93.2932 146.445 93.7139C145.178 94.0356 143.929 94.8972 142.614 95.0012C140.025 95.2056 137.017 92.2524 134.996 95.5925C134.028 97.1938 135.434 98.2253 136.883 97.4785C138.394 96.7002 137.652 96.4214 139.526 96.8813C141.09 97.2646 142.353 97.4728 143.919 96.9355C145.338 96.449 146.584 95.5585 148.125 95.4584C149.635 95.3606 150.948 96.0482 152.392 96.345C154.166 96.7098 155.737 96.4337 157.418 95.8774C159.018 95.3483 159.656 95.0589 161.27 95.5309C162.292 95.8299 164.524 96.7795 165.519 96.0142C167.239 94.6912 164.936 94.4977 164.03 94.3096C162.57 94.0072 161.059 93.1751 159.544 93.2991Z" fill="#89C5CC"/>
<path fill-rule="evenodd" clip-rule="evenodd" d="M194.394 92.4106C194.406 92.4199 194.418 92.4293 194.43 92.4387C194.418 92.4293 194.406 92.4199 194.394 92.4106ZM192.899 92.0977C195.122 92.2409 197.526 96.2909 194.58 96.4346C192.507 96.5359 190.187 92.9894 192.899 92.0977ZM192.587 88.7836C185.557 90.7467 188.77 100.658 195.551 99.5132C198.631 98.9931 199.675 95.4247 198.657 92.7833C198.22 91.6488 197.367 90.6923 196.348 90.0394C195.596 89.5578 193.446 88.5443 192.587 88.7836Z" fill="#89C5CC"/>
<path fill-rule="evenodd" clip-rule="evenodd" d="M159.788 109.475C165.974 109.262 172.161 109.05 178.354 108.993C181.71 108.962 185.048 109.02 188.399 109.213C189.885 109.298 191.371 109.38 192.858 109.443C193.114 109.454 193.469 109.436 193.86 109.417C194.781 109.372 195.905 109.317 196.434 109.596C199.392 111.161 193.365 111.333 192.632 111.321C190.991 111.293 189.352 111.212 187.713 111.131C186.281 111.06 184.848 110.989 183.414 110.954C174.215 110.728 164.961 111.141 155.746 111.553C153.634 111.647 151.524 111.741 149.417 111.828C147.18 111.92 144.943 111.979 142.707 112.038C139.51 112.123 136.314 112.208 133.118 112.388C131.897 112.456 130.676 112.529 129.456 112.602L129.456 112.602L129.456 112.602C127.708 112.706 125.959 112.81 124.21 112.902C122.841 112.974 121.472 113.044 120.101 113.079C119.854 113.085 119.532 113.119 119.181 113.157C118.331 113.247 117.308 113.357 116.756 113.131C116.091 112.859 115.553 112.479 115.919 111.673C116.228 110.992 117.351 111.074 118.17 111.134C118.393 111.15 118.594 111.164 118.75 111.161C121.367 111.111 123.978 110.964 126.591 110.804C127.546 110.745 128.502 110.685 129.457 110.625C134.43 110.312 139.399 110 144.385 109.915C149.521 109.827 154.654 109.651 159.788 109.475ZM192.098 150.19L193.877 150.169C194.795 150.249 195.206 151.213 194.616 151.954C194.165 152.521 192.427 152.547 191.294 152.564H191.294H191.294C190.981 152.568 190.713 152.572 190.532 152.587C187.576 152.824 184.625 152.931 181.659 152.96C175.414 153.019 169.192 153.287 162.957 153.642C156.574 154.006 150.186 154.143 143.798 154.28H143.798H143.798C139.098 154.381 134.398 154.481 129.7 154.672C127.009 154.782 124.318 154.864 121.627 154.934C121.337 154.942 120.953 154.983 120.518 155.03C118.817 155.214 116.347 155.481 115.787 154.13C115.29 152.932 115.981 152.38 116.991 152.129C116.831 151.42 116.861 150.423 116.877 149.851C116.883 149.68 116.886 149.547 116.884 149.471C116.858 148.755 116.841 148.039 116.823 147.322C116.803 146.51 116.783 145.699 116.752 144.887C116.723 144.151 116.697 143.414 116.67 142.676C116.566 139.768 116.462 136.852 116.238 133.955C116.135 132.618 115.971 131.296 115.807 129.977C115.546 127.871 115.285 125.77 115.273 123.62C115.271 123.233 115.252 122.749 115.23 122.204C115.118 119.412 114.942 114.998 116.675 113.654C119.73 111.871 119.126 117.018 118.857 119.314C118.812 119.694 118.777 119.995 118.769 120.175C118.593 123.994 118.831 127.645 119.216 131.44C119.475 134.003 119.323 136.558 119.172 139.117C119.117 140.03 119.063 140.945 119.028 141.86C119.01 142.313 118.994 142.766 118.979 143.219C118.931 144.612 118.883 146.003 118.778 147.395C118.766 147.545 118.763 147.834 118.758 148.203C118.744 149.243 118.722 150.922 118.499 151.94C118.974 151.92 119.434 151.925 119.814 151.929H119.814H119.814C120.056 151.932 120.266 151.934 120.426 151.929C121.155 151.907 121.885 151.886 122.614 151.864H122.614H122.614C124.769 151.801 126.924 151.738 129.078 151.657C134.164 151.466 139.251 151.402 144.338 151.338H144.338C150.346 151.263 156.354 151.187 162.36 150.902C172.258 150.431 182.19 150.311 192.098 150.19ZM193.934 112.853C193.929 119.395 194.435 125.758 195.026 132.274C195.391 136.304 195.684 140.35 195.918 144.391C195.929 144.578 195.927 144.89 195.925 145.281V145.282C195.913 147.516 195.887 152.331 198.096 151.179C199.763 150.309 199.122 145.267 198.768 142.477C198.69 141.865 198.626 141.361 198.603 141.033C198.555 140.336 198.507 139.639 198.459 138.942L198.459 138.94C198.237 135.701 198.015 132.464 197.723 129.229L197.661 128.547C197.323 124.81 196.985 121.076 196.925 117.321C196.92 117.011 196.95 116.578 196.984 116.09C197.081 114.676 197.211 112.794 196.624 112.044C195.798 110.987 193.936 111.3 193.934 112.853Z" fill="#69A1AC"/>
<path fill-rule="evenodd" clip-rule="evenodd" d="M160.071 128.891C167.973 125.316 175.966 121.699 184.183 119.124C184.777 118.939 185.153 119.551 185.018 120.065C184.879 120.594 183.593 121.046 182.741 121.346C182.486 121.435 182.27 121.511 182.135 121.572C180.987 122.084 179.836 122.591 178.685 123.097C177.507 123.615 176.329 124.134 175.153 124.659C172.71 125.751 170.264 126.838 167.818 127.925C165.198 129.089 162.579 130.253 159.962 131.423C159.863 131.468 159.764 131.512 159.665 131.556C163.222 132.821 166.76 134.142 170.282 135.502C171.486 135.967 172.685 136.442 173.885 136.917C174.564 137.185 175.242 137.454 175.922 137.721C176.143 137.808 176.528 137.925 176.991 138.067C178.5 138.527 180.833 139.24 181.006 139.959C181.286 141.132 178.065 139.998 176.849 139.57C176.688 139.513 176.562 139.469 176.484 139.444C174.691 138.871 172.919 138.232 171.147 137.593L170.902 137.505C169.498 136.999 168.097 136.488 166.695 135.977C163.957 134.979 161.219 133.98 158.466 133.022C158.077 132.887 157.687 132.752 157.298 132.617C152.88 134.602 148.47 136.605 144.075 138.641C141.719 139.732 139.375 140.849 137.038 141.981C136.528 142.228 135.896 142.609 135.21 143.024C133.565 144.018 131.607 145.202 130.26 145.172C129.538 145.156 129.051 145.002 128.976 144.126C128.898 143.223 130.057 142.749 130.89 142.408C131.09 142.327 131.271 142.253 131.411 142.182C133.909 140.933 136.423 139.715 138.944 138.513C143.951 136.125 149.004 133.832 154.076 131.585C154.105 131.572 154.134 131.559 154.164 131.546C151.351 130.594 148.53 129.665 145.703 128.755C145.421 128.664 144.842 128.504 144.082 128.293C140.489 127.298 132.834 125.178 133.174 123.94C133.565 122.523 140.742 125.112 143.919 126.258C144.514 126.473 144.969 126.637 145.213 126.715C149.012 127.926 152.8 129.171 156.569 130.472C157.734 129.948 158.901 129.42 160.071 128.891Z" fill="#89C5CC"/>
<path fill-rule="evenodd" clip-rule="evenodd" d="M126.213 160.005C128.526 160.41 130.158 162.629 129.904 164.953C129.561 168.092 126.432 169.531 123.541 169.122C120.261 168.657 119.572 165.884 121.161 163.216C121.512 162.626 121.917 161.919 122.557 161.608C122.996 161.395 123.556 161.584 123.911 161.411C125.152 160.807 124.406 159.845 126.213 160.005ZM125.16 157.954C122.338 158.314 117.123 161.58 117.387 164.848C117.616 165.227 117.96 165.382 118.42 165.313C118.31 166.021 118.346 166.721 118.529 167.414C118.797 168.314 119.331 169.051 120.048 169.636C121.524 170.843 123.542 171.139 125.38 170.927C128.811 170.533 131.516 168.187 131.709 164.618C131.897 161.134 128.856 157.487 125.16 157.954Z" fill="#89C5CC"/>
<path fill-rule="evenodd" clip-rule="evenodd" d="M138.83 162.206C137.564 162.877 135.561 163.908 134.818 165.183C134.034 166.529 134.846 168.002 136.499 167.365C137.811 166.86 138.646 165.253 140.045 164.738C141.281 164.284 141.779 164.515 143.084 164.968C144.429 165.434 145.605 165.884 147.059 165.77C148.887 165.626 150.47 164.567 152.259 164.326C153.765 164.122 155.008 164.709 156.45 164.942C158.124 165.212 159.218 164.579 160.784 164.249C161.849 164.024 163.727 164.938 164.503 164.596C166.25 163.828 164.402 162.889 163.435 162.579C161.806 162.056 160.804 162.517 159.254 162.951C157.572 163.421 156.845 163.067 155.237 162.635C151.984 161.761 149.471 163.875 146.387 163.491C143.532 163.135 141.823 160.621 138.83 162.206Z" fill="#89C5CC"/>
<path fill-rule="evenodd" clip-rule="evenodd" d="M192.029 160.644C195.161 163.58 191.643 167.757 188.19 165.411C186.975 164.585 186.955 163.259 187.901 162.072C188.766 160.986 190.666 160.563 192.029 160.644ZM190.868 158.272C187.943 158.841 185.183 160.183 184.918 163.56C184.66 166.854 188.039 168.384 190.878 168.168C197.251 167.683 196.791 157.127 190.868 158.272Z" fill="#89C5CC"/>
</g>
<g opacity="0.5">
<path fill-rule="evenodd" clip-rule="evenodd" d="M287.973 24.0318C279.548 24.1264 271.128 24.4372 262.721 24.9693C254.725 25.4759 246.05 25.0913 238.185 26.6412C235.952 27.081 232.935 29.1165 235.905 31.3553C237.992 32.9293 245.628 31.1187 248.121 30.9656C257.3 30.4015 266.484 29.7256 275.676 29.4009C284.378 29.0933 293.079 28.9848 301.785 28.898C303.114 28.8851 305.321 28.4587 306.645 28.8447C308.546 29.3995 308.095 29.5503 308.238 31.9644C308.496 36.3384 308.424 40.7283 308.338 45.1065C308.254 49.3433 308.097 53.5795 308.112 57.8181C308.123 60.8423 307.156 66.8515 308.674 69.4776C310.858 73.2579 313.124 69.152 313.287 66.64C313.6 61.8355 313.46 56.972 313.461 52.1614C313.462 47.6459 313.494 43.1303 313.335 38.6171C313.22 35.3568 313.686 29.6658 311.93 26.702C310.141 23.6834 305.834 24.3343 302.692 24.1905C297.79 23.965 292.879 23.9808 287.973 24.0318Z" fill="#89C5CC"/>
<path fill-rule="evenodd" clip-rule="evenodd" d="M234.373 29.4806C234.383 37.9648 233.401 46.3923 233.126 54.8668C233 58.763 232.744 63.0415 233.73 66.8663C234.725 70.7282 237.885 71.5651 238.249 67.2537C238.986 58.5232 238.805 49.4703 239.379 40.6697C239.582 37.5626 240.9 31.8683 239.669 28.9587C238.585 26.3957 234.369 25.9045 234.373 29.4806Z" fill="#89C5CC"/>
<path fill-rule="evenodd" clip-rule="evenodd" d="M313.37 66.8778C298.74 68.8145 283.445 68.1085 268.711 68.4128C261.642 68.5589 254.574 68.5682 247.504 68.642C245.037 68.6675 238.771 67.729 236.636 69.1161C233.238 71.3242 236.925 73.0281 239.175 73.0768C253.127 73.3825 267.234 72.7409 281.184 72.2831C287.451 72.0776 293.739 71.9769 299.99 71.4443C303.838 71.1164 308.043 70.7986 311.78 69.7646C312.576 69.5438 314.309 69.5897 314.488 68.5037C314.598 67.832 314.398 66.7358 313.37 66.8778Z" fill="#89C5CC"/>
<path fill-rule="evenodd" clip-rule="evenodd" d="M252.534 79.2103C248.468 79.2339 236.215 77.3454 234.531 81.3103C232.286 86.5983 241.044 85.3638 243.399 85.3035C248.748 85.1662 254.094 85.1514 259.445 85.1537C264.695 85.156 269.945 85.1221 275.194 84.9974C276.715 84.9607 280.255 85.5921 281.129 83.7606C281.794 82.3689 281.269 81.2709 280.043 80.5342C277.092 78.7608 269.427 79.7892 265.972 79.6296C261.5 79.4237 257.012 79.2103 252.534 79.2103Z" fill="#89C5CC"/>
<path fill-rule="evenodd" clip-rule="evenodd" d="M302 80.1893C299.677 80.3275 294.976 79.3696 292.895 80.4328C290.529 81.6417 291.362 83.5344 293.405 84.3662C294.82 84.9419 300.622 84.6399 302 83.9728C303.437 83.277 305.061 80.001 302 80.1893Z" fill="#89C5CC"/>
<path fill-rule="evenodd" clip-rule="evenodd" d="M327.476 30.3129C324.995 30.9939 325.748 45.0837 325.684 47.3174C325.508 53.4371 324.82 61.134 326.854 67.0278C328.151 70.7848 330.641 70.2755 330.217 66.3199C329.844 62.8481 329.205 59.4162 328.928 55.9217C328.302 48.0146 327.45 39.5806 328.042 31.667C328.293 32.1267 330.648 36.3917 331.202 36.0735C331.034 36.1728 328.486 30.0466 327.476 30.3129Z" fill="#89C5CC"/>
<path fill-rule="evenodd" clip-rule="evenodd" d="M355.394 25.1235C350.371 25.1978 345.348 25.2868 340.327 25.426C336.335 25.5373 330.062 24.8814 326.4 26.5607C322.041 28.5601 324.109 33.0153 328.204 33.1095C331.826 33.193 335.689 32.376 339.344 32.2508C349.218 31.9126 359.108 31.8407 368.986 31.7563C377.919 31.6793 387.232 32.6321 396.087 31.2905C397.401 42.9533 393.848 54.6652 395.057 66.4621C395.244 68.293 395.16 70.8802 397.492 71.2972C400.434 71.8237 400.555 68.9091 400.667 66.822C400.986 60.8629 400.813 54.899 401.249 48.932C401.654 43.4023 402.45 37.7507 401.777 32.2123C400.95 25.3968 397.684 25.9432 391.911 25.6598C379.718 25.0618 367.6 24.9445 355.394 25.1235Z" fill="#89C5CC"/>
<path fill-rule="evenodd" clip-rule="evenodd" d="M338.561 66.5366C336.002 66.6011 331.751 65.8125 330.112 68.2665C328.405 70.8197 330.43 73.0469 332.911 73.5711C335.847 74.1913 339.676 73.341 342.724 73.3317C345.898 73.3224 349.073 73.3577 352.247 73.3702C365.855 73.4236 379.522 73.6295 393.12 73.0668C395.019 72.9884 400.409 73.6254 401.724 71.8037C402.89 70.1879 402.074 68.7387 400.538 67.9158C398.018 66.5654 392.841 67.0789 390.038 66.9717C386.576 66.84 383.11 66.7969 379.646 66.743C365.975 66.532 352.232 66.1984 338.561 66.5366Z" fill="#89C5CC"/>
<path fill-rule="evenodd" clip-rule="evenodd" d="M350.073 78.3406C344.98 78.4273 339.547 78.2037 334.505 78.9761C330.072 79.6553 329.526 83.9407 334.298 84.4422C338.684 84.9033 344 84.0418 348.407 83.7589C349.973 83.6582 351.793 83.8011 352.543 82.0707C353.326 80.263 351.829 78.5294 350.073 78.3406Z" fill="#89C5CC"/>
<path fill-rule="evenodd" clip-rule="evenodd" d="M388.572 78.7904C385.854 78.8581 377.914 77.6896 376.568 80.794C374.327 85.9627 385.075 83.999 387.137 83.9229C389.735 83.8274 399.863 85.3448 399.866 81.2077C399.868 77.151 391.061 78.7287 388.572 78.7904Z" fill="#89C5CC"/>
<path fill-rule="evenodd" clip-rule="evenodd" d="M233.934 104.474C233.94 113.877 233.355 123.367 234.213 132.746C234.567 136.625 234.507 144.056 236.754 147.344C238.348 149.679 240.56 149.515 241.432 146.712C242.014 144.838 241.082 141.091 240.979 139.086C240.878 137.163 240.762 135.24 240.673 133.316C240.444 128.358 240.462 123.409 240.53 118.449C240.589 114.194 241.613 108.566 240.647 104.474C239.747 100.661 233.934 99.7691 233.934 104.474Z" fill="#69A1AC"/>
<path fill-rule="evenodd" clip-rule="evenodd" d="M328.43 96.2022C312.117 96.6114 295.768 96.2458 279.469 97.0535C271.431 97.4515 263.425 98.3259 255.427 99.1976C251.498 99.6262 247.571 100.068 243.648 100.551C242.465 100.697 232.629 101.078 236.328 104.819C237.944 106.452 243.084 104.746 245.118 104.505C249.056 104.04 253.002 103.635 256.946 103.218C264.45 102.424 271.964 101.672 279.5 101.255C297.25 100.272 315.072 100.567 332.839 99.9111C337.645 99.7339 342.437 99.6067 347.245 99.796C348.507 99.8457 357.784 100.317 353.756 96.8907C351.852 95.2698 344.671 96.1062 342.29 96.0575C337.671 95.9619 333.048 96.0863 328.43 96.2022Z" fill="#69A1AC"/>
<path fill-rule="evenodd" clip-rule="evenodd" d="M350.669 112.044C350.588 107.699 350.508 103.355 350.31 99.0146C350.102 94.4434 356.328 93.7508 358.175 97.4508C359.504 100.115 359.27 104.647 359.07 108.532C358.989 110.097 358.914 111.558 358.949 112.748C359.028 115.477 359.229 118.298 359.432 121.157C359.944 128.35 360.472 135.782 359.128 142.572C358.474 145.872 355.69 147.607 353.837 145.808C353.835 145.812 353.832 145.815 353.83 145.819C353.133 146.846 350.963 146.844 349.366 146.842C348.926 146.842 348.529 146.841 348.218 146.863C343.841 147.16 339.545 147.662 335.207 148.312C326.563 149.608 317.994 150.404 309.256 150.621C303.328 150.767 297.391 150.816 291.452 150.866C280.081 150.96 268.703 151.055 257.368 151.832C253.546 152.095 249.782 152.545 246.023 153.264C245.703 153.326 245.348 153.405 244.97 153.489C242.174 154.11 238.128 155.01 237.852 151.104C237.523 146.468 247.571 145.861 252.742 145.548C253.531 145.5 254.207 145.46 254.715 145.412C270.415 143.952 286.362 144.178 302.13 144.402C302.894 144.413 303.657 144.423 304.42 144.434C305.651 144.451 306.881 144.471 308.111 144.492C314.861 144.603 321.604 144.714 328.353 144.301C331.424 144.113 334.535 144.017 337.652 143.92C342.625 143.766 347.613 143.611 352.476 143.084C351.743 140.24 351.615 136.884 351.494 133.721C351.447 132.489 351.401 131.287 351.32 130.155C350.893 124.126 350.781 118.085 350.669 112.044Z" fill="#69A1AC"/>
<path fill-rule="evenodd" clip-rule="evenodd" d="M363.871 102.363C361.668 102.663 359.829 104.549 360.813 106.941C362.053 109.953 365.744 108.776 368.182 108.586C375.932 107.978 384.024 109.191 391.68 108.276C393.771 108.026 396.805 106.887 394.927 104.077C393.516 101.966 388.374 102.336 386.189 102.134C378.714 101.443 371.337 101.627 363.871 102.363Z" fill="#C1DEE2"/>
<path fill-rule="evenodd" clip-rule="evenodd" d="M376.952 115.504C373.946 115.706 366.949 115.547 365.683 118.967C363.411 125.102 372.31 122.94 375.019 122.591C378.167 122.186 385.587 123.271 387.263 120.219C390.26 114.761 379.588 115.322 376.952 115.504Z" fill="#C1DEE2"/>
<path fill-rule="evenodd" clip-rule="evenodd" d="M369.223 128.968C367.797 130.394 367.795 132.942 369.223 134.368C370.971 136.115 374.78 135.752 377.078 135.88C380.282 136.059 389.484 137.753 391.076 133.98C393.222 128.89 384.889 128.996 382.148 128.707C378.98 128.374 371.848 126.341 369.223 128.968Z" fill="#C1DEE2"/>
<path fill-rule="evenodd" clip-rule="evenodd" d="M256.901 41.8288C256.901 47.3018 265.449 47.3018 265.449 41.8288C265.449 36.3855 256.901 36.3024 256.901 41.8288Z" fill="#89C5CC"/>
<path fill-rule="evenodd" clip-rule="evenodd" d="M273.115 41.8909C273.115 48.1479 282.851 48.1354 282.851 41.8909C282.851 35.6557 273.115 35.5922 273.115 41.8909Z" fill="#89C5CC"/>
<path fill-rule="evenodd" clip-rule="evenodd" d="M263.306 50.2101C258.573 51.5169 262.933 55.5278 265.131 56.4439C268.624 57.9006 273.39 58.974 276.884 56.7905C278.274 55.9216 279.402 54.767 278.383 53.0807C277.298 51.2854 275.812 52.0838 274.16 52.2494C272.066 52.46 270.375 52.4276 268.353 51.7563C266.845 51.2553 264.952 49.7574 263.306 50.2101Z" fill="#89C5CC"/>
<path fill-rule="evenodd" clip-rule="evenodd" d="M349.154 42.1753C349.154 45.8772 354.902 45.8772 354.902 42.1753C354.902 38.4735 349.154 38.4735 349.154 42.1753Z" fill="#89C5CC"/>
<path fill-rule="evenodd" clip-rule="evenodd" d="M361.866 42.7325C361.866 46.8454 368.251 46.8459 368.251 42.7325C368.251 38.6192 361.866 38.6197 361.866 42.7325Z" fill="#89C5CC"/>
<path fill-rule="evenodd" clip-rule="evenodd" d="M361.393 51.6584C358.038 52.0907 348.337 53.0742 347.794 57.2088C346.957 63.5879 357.587 58.4252 360.013 57.9242C363.103 57.2863 365.863 57.4529 368.948 57.5767C370.641 57.6444 372.894 57.9191 372.717 55.3389C372.425 51.1021 364.325 51.2826 361.393 51.6584Z" fill="#89C5CC"/>
<path fill-rule="evenodd" clip-rule="evenodd" d="M277.055 110.485C274.624 111.133 271.443 115.337 273.116 117.909C275.859 122.128 277.069 115.65 278.217 115.027C280.305 113.892 282.001 118.038 284.184 115.863C287.628 112.432 279.224 109.904 277.055 110.485Z" fill="#69A1AC"/>
<path fill-rule="evenodd" clip-rule="evenodd" d="M304.914 107.366C302.031 107.392 295.944 111.475 295.512 114.489C295.256 116.28 296.444 118 298.374 118.024C301.003 118.056 301.839 114.638 304.117 113.924C306.576 113.153 306.211 114.928 308.334 115.848C309.887 116.522 311.83 116.24 312.37 114.33C313.388 110.727 307.877 107.309 304.914 107.366Z" fill="#69A1AC"/>
<path fill-rule="evenodd" clip-rule="evenodd" d="M282.843 124.624C278.231 127.327 285.82 133.119 288.45 133.844C292.422 134.937 300.415 132.897 301.356 128.045C301.731 126.114 300.523 124.366 298.392 124.711C296.638 124.996 295.512 127.197 293.887 127.985C291.694 129.049 289.744 128.976 287.88 127.375C286.362 126.07 285.549 123.046 282.843 124.624Z" fill="#69A1AC"/>
<path fill-rule="evenodd" clip-rule="evenodd" d="M286.186 164.556C282.065 165.434 277.877 164.845 273.737 165.671C269.515 166.514 266.992 168.109 263.069 166.502C262.885 166.424 262.701 166.346 262.517 166.268C259.481 164.961 256.299 164.573 253.121 166.657C251.241 167.89 245.532 172.156 246.22 174.759C247.711 180.402 254.135 171.553 255.773 170.691C258.896 169.047 261.038 171.147 264.254 171.74C268.105 172.451 271.205 170.415 274.833 169.605C279.077 168.656 283.851 168.326 288.168 167.819C289.874 167.618 296.335 168.967 296.918 166.844C297.92 163.198 287.805 164.212 286.186 164.556Z" fill="#C1DEE2"/>
<path fill-rule="evenodd" clip-rule="evenodd" d="M315.913 175.92C316.182 176.124 315.966 175.96 315.913 175.92V175.92ZM327.453 164.335C330.98 163.977 342.266 161.457 344.583 165.102C346.092 167.476 343.697 176.239 341.412 177.372C339.586 178.277 335.332 177.276 333.328 177.205C329.6 177.074 325.863 177.016 322.139 176.783C320.89 176.705 316.871 176.935 315.892 175.83C314.735 174.524 314.787 167.565 314.515 165.84C317.758 166.889 324.062 164.679 327.453 164.335ZM334.985 160.761C330.467 160.957 325.951 161.297 321.467 161.902C318.967 162.24 316.435 163.138 314.127 163.564C313.382 163.701 312.175 163.321 311.262 163.761C308.596 165.049 310.931 173.759 311.574 176.086C312.561 179.66 315.047 180.239 318.529 180.576C323.116 181.02 327.798 180.88 332.399 180.824C336.835 180.77 342.816 181.753 345.305 177.302C346.913 174.424 348.639 167.723 347.264 164.516C345.455 160.296 338.7 160.605 334.985 160.761Z" fill="#C1DEE2"/>
<path fill-rule="evenodd" clip-rule="evenodd" d="M385.575 178.314C385.333 178.624 385.333 178.624 385.575 178.314V178.314ZM386.564 177.121C386.49 177.234 386.143 177.6 386.564 177.121V177.121ZM375.791 176.793C377.782 176.418 379.774 176.047 381.768 175.684C379.88 178.326 377.892 177.234 374.667 177.004C375.042 176.933 375.416 176.863 375.791 176.793ZM366.29 175.858C366.795 175.689 367.299 175.52 367.804 175.351C367.789 175.735 367.872 176.095 368.052 176.43C367.188 176.337 366.324 176.237 365.462 176.13C365.738 176.039 366.014 175.948 366.29 175.858ZM361.887 172.607C361.859 171.913 362.902 172.389 363.5 172.343C362.347 173.357 361.81 173.445 361.887 172.607ZM377.633 164.742C377.785 164.549 377.985 164.558 378.235 164.771C377.963 164.863 376.912 165.308 377.633 164.742ZM387.844 163.541C387.871 163.541 388.437 164.306 387.844 163.541V163.541ZM387.558 163.291C387.706 163.404 387.706 163.404 387.558 163.291V163.291ZM386.283 163.142C388.371 163.494 388.212 165.944 386.283 163.142V163.142ZM361.754 162.975C361.33 163.327 361.475 162.985 361.754 162.975V162.975ZM369.739 157.758C366.194 157.965 359.688 157.757 356.728 159.645C352.865 162.11 354.897 170.596 355.243 174.316C355.754 179.815 358.341 181.38 363.519 181.957C369.699 182.646 376.049 182.775 382.26 182.611C387.855 182.464 391.041 180.54 392.065 174.65C392.379 172.848 393.176 170.06 393.151 168.334C393.134 167.136 392.537 166.59 392.311 165.572C391.026 159.775 388.878 159.088 382.936 158.835C378.563 158.649 374.03 157.534 369.739 157.758Z" fill="#89C5CC"/>
</g>
<path opacity="0.2" fill-rule="evenodd" clip-rule="evenodd" d="M545.143 7.22534C547.25 6.18057 550.059 7.39227 548.887 10.1542C547.632 13.1118 542.992 13.1484 540.371 13.0898C540.633 13.076 541.478 10.3638 541.767 9.95399C542.62 8.74499 543.848 7.8688 545.143 7.22534ZM520.883 61.1155C520.139 61.7518 520.823 61.1752 520.883 61.1155V61.1155ZM547.592 20.9572C548.852 21.9107 548.911 23.5953 547.881 24.7361C546.655 26.0943 544.416 26.046 542.745 25.9145C541.989 25.855 537.953 25.537 538.91 24.8824C538.837 24.91 538.683 24.9769 538.519 25.0677C538.43 25.3881 538.337 25.7073 538.24 26.0251C538.263 26.0388 538.284 26.0535 538.309 26.0672C538.282 26.0553 538.262 26.0424 538.238 26.0303C537.266 29.2066 535.883 32.2312 534.072 35.0612C534.749 34.7969 535.45 34.5967 536.161 34.5074C538.267 34.2426 542.696 35.8608 540.339 38.6385C538.079 41.3012 534.565 38.4475 532.002 38.055C529.514 41.4924 526.772 44.7869 523.898 47.9713C524.074 48.0258 524.228 48.1395 524.317 48.3166C525.469 47.737 526.67 46.9081 527.737 46.6833C529.276 46.3594 532.432 46.1619 533.595 47.5255C535.024 49.2023 533.49 50.5656 531.8 50.8882C529.349 51.3561 526.141 50.1718 523.783 49.3717C523.513 49.4191 523.219 49.3411 523.043 49.1275C522.991 49.1106 522.939 49.094 522.888 49.0778C519.977 52.2468 516.956 55.3112 513.952 58.3085C513.984 58.3068 514.016 58.3049 514.05 58.3031C514.833 57.7941 515.673 57.3764 516.583 57.1573C518.69 56.6479 521.168 56.6442 522.876 58.1525C524.578 59.6543 525.179 62.282 523.417 63.9703C519.89 67.3497 514.7 59.6511 512.922 59.3306C509.87 62.3446 506.643 65.1608 503.365 67.9202C503.737 67.8078 504.119 67.7252 504.513 67.6879C507.726 67.3817 515.265 71.2786 511.32 75.1184C507.883 78.4645 503.909 72.0295 501.141 69.7797C498.053 72.3517 494.947 74.906 491.929 77.5598C493.575 77.1262 495.165 77.0617 496.929 77.5886C498.754 78.1347 501.698 79.4982 500.543 81.9393C499.368 84.4219 495.832 83.2943 493.99 82.5072C492.986 82.078 490.972 80.6285 489.204 80.0184C484.387 84.5222 480.215 89.4823 477.055 95.3245C475.082 98.9721 473.584 102.869 472.53 106.874C471.856 109.43 470.53 113.723 470.793 117.05C469.533 110.392 471.822 102.393 474.286 96.4403C476.551 90.9662 479.94 86.16 483.909 81.8333C482.915 78.8689 474.539 74.597 479.549 71.8399C482.209 70.3821 484.932 72.7974 485.512 75.3566C485.91 77.1152 485.301 79.3254 484.654 81.0329C485.903 79.7139 487.201 78.4373 488.538 77.2031C490.386 75.4972 492.278 73.8408 494.188 72.2053C491.043 69.2793 488.07 60.9117 492.289 59.5408C498.52 57.5222 495.515 68.9396 495.079 71.0794C494.956 71.0867 494.859 71.0498 494.789 70.9707C494.824 71.1666 494.864 71.3761 494.913 71.5874C498.57 68.4733 502.28 65.4204 505.868 62.2321C505.545 61.9957 505.032 61.0921 504.629 60.6112C503.718 59.5272 502.847 58.3948 502.21 57.1264C501.205 55.122 500.236 51.9246 502.904 50.744C505.806 49.4577 507.183 53.0739 507.203 55.2316C507.216 56.7238 506.804 58.1416 506.59 59.6044C506.523 60.0606 506.779 62.1168 506.152 61.2325C506.182 61.5587 506.186 61.7949 506.171 61.9623C506.815 61.3871 507.454 60.8055 508.09 60.2198C508.06 60.1459 508.038 60.0654 508.034 59.9719C508 59.3287 508.654 59.0806 509.112 59.2688C509.95 58.4799 510.78 57.681 511.595 56.8664C513.323 55.1404 515.076 53.3652 516.817 51.5522C516.439 51.2312 516.59 50.7864 516.237 50.4457C515.885 50.1057 515.191 49.9179 514.776 49.6021C513.734 48.8074 512.87 47.6493 512.246 46.5094C511.215 44.6259 509.883 40.6745 512.899 39.775C516.007 38.8465 517.582 42.65 517.781 45.0284C517.82 45.4892 517.469 49.6413 517.202 51.1491C520.423 47.7797 523.591 44.2841 526.461 40.7277C525.592 40.7202 523.126 38.9566 522.628 38.4752C521.412 37.3012 519.48 34.7067 521.613 33.3321C523.51 32.1129 525.846 33.8762 526.656 35.5906C526.79 35.8729 527.258 38.5009 527.294 39.68C528.482 38.1719 529.616 36.655 530.67 35.1332C531.373 34.1215 532.031 33.083 532.646 32.0226C532.498 31.9396 532.359 31.7949 532.227 31.6149C529.065 31.085 525.036 26.2003 528.751 24.4982C530.52 23.6889 532.437 25.3567 533.303 26.7226C533.48 27.002 533.767 28.4072 534.001 29.5156C535.77 26.0025 537.123 22.2836 538.153 18.4706C537.878 18.4031 537.644 18.1949 537.614 17.8367C536.079 16.9706 534.867 16.2494 533.796 14.583C533.131 13.5479 531.933 11.1829 533.889 10.6072C536.436 9.85817 538.033 13.7088 538.241 15.6057C538.265 15.8259 538.264 16.4663 538.255 17.0532C538.343 17.0413 538.433 17.0426 538.52 17.0579C539.106 14.6969 539.574 12.3056 539.947 9.91033C538.557 9.46807 538.321 2.24018 539.246 1.21053C541.316 -1.09499 542.773 2.23318 542.662 3.99264C542.53 6.06721 541.58 7.95479 540.449 9.63014C540.328 9.80756 540.362 9.79893 540.331 9.55188C540.314 9.67401 540.272 9.76415 540.211 9.82947C540.269 10.9214 540.382 12.0394 540.327 13.0057C540.169 15.773 539.842 18.5564 539.368 21.2883C539.253 21.9527 539.121 22.6117 538.973 23.265C540.09 22.322 541.597 21.4839 542.186 21.2217C543.716 20.542 546.074 19.8078 547.592 20.9572ZM470.543 116.787C470.617 117.676 470.836 118.488 471.268 119.153C470.951 118.393 470.713 117.601 470.543 116.787Z" fill="#C1DEE2"/>
<g opacity="0.5">
<path opacity="0.5" fill-rule="evenodd" clip-rule="evenodd" d="M525.945 97.8344C528.467 94.2388 533.147 85.1071 536.696 83.8223C538.982 82.9948 538.315 91.555 538.344 93.1873C538.453 99.5022 537.839 105.777 537.079 112.039C535.712 123.332 531.239 133.39 525.105 143.002C521.948 147.948 518.246 152.953 513.118 156.039C510.757 157.461 507.917 157.698 505.586 158.923C502.871 160.348 504.349 159.196 503.126 162.025C501.427 165.953 500.883 171.02 500.097 175.211C496.487 194.451 487.748 296.156 489.263 315.726C489.398 317.461 486.979 317.876 486.859 315.758C486.217 304.53 491.77 226.775 494.572 201.347C497.374 175.919 500.209 153.454 503.052 144.657C506.501 133.984 512.73 121.149 517.915 111.196C520.323 106.572 522.949 102.107 525.945 97.8344Z" fill="#69A1AC"/>
<path opacity="0.5" fill-rule="evenodd" clip-rule="evenodd" d="M544.662 222.548C551.224 217.73 558.326 226.822 552.389 231.64C549.106 234.303 545.675 233.356 543.743 231.137C542.489 232.665 541.315 234.264 540.187 235.614C536.75 239.728 533.503 243.94 530.398 248.251C523.95 257.206 518.424 266.666 512.646 275.954C506.944 285.12 501.288 294.334 496.12 303.732C491.742 311.695 485.906 321.063 484.407 329.793C486.681 311.279 495.311 293.483 505.588 277.161C515.781 260.974 527.479 243.295 543.262 230.52C541.656 228.158 541.611 224.786 544.662 222.548Z" fill="#C1DEE2"/>
<path opacity="0.5" fill-rule="evenodd" clip-rule="evenodd" d="M420.148 177.395C423.82 178.113 429.82 186.42 432.847 189.584C436.444 193.345 439.707 197.354 442.784 201.554C449.406 210.595 455.329 220.207 460.365 230.23C468.575 246.571 475.153 263.345 479.927 281.138C482.849 292.031 484.741 303.32 485.862 314.531C486.074 316.645 488.29 332.945 485.096 333.384C482.224 333.78 483.111 321.007 482.972 319.27C481.406 299.669 476.713 280.597 470.185 262.121C468.763 258.097 467.442 253.167 465.168 249.545C463.53 246.937 465.156 247.846 462.278 246.859C459.807 246.011 456.992 246.218 454.462 245.18C448.965 242.926 444.563 238.549 440.705 234.147C433.207 225.593 427.265 216.338 424.168 205.376C422.45 199.298 420.871 193.184 419.995 186.919C419.768 185.299 417.783 176.932 420.148 177.395Z" fill="#69A1AC"/>
<path opacity="0.5" fill-rule="evenodd" clip-rule="evenodd" d="M434.639 39.191C448.47 63.1782 459.836 89.5276 467.175 116.215C471.622 132.385 474.732 148.978 477.821 165.451C482.605 190.957 487.13 216.461 488.417 242.421C489.712 268.53 492.273 298.645 483.724 323.792C487.994 298.261 483.928 271.084 483.208 245.394C482.864 233.13 481.867 220.985 480.56 208.793C479.291 196.966 477.217 185.195 475.287 173.46C474.346 167.745 473.359 162.039 472.353 156.336C472.053 154.634 471.926 149.585 470.847 148.423C469.76 147.253 464.218 146.776 462.477 145.918C458.973 144.188 455.677 141.732 452.76 139.137C447.168 134.162 442.303 127.662 438.464 121.254C429.58 106.427 426.028 88.3327 426.207 71.1613C426.242 67.8274 431.603 31.9265 429.45 31.4321C429.58 31.2803 429.702 31.1235 429.818 30.9604C431.448 33.69 433.048 36.4381 434.639 39.191Z" fill="#89C5CC"/>
<path opacity="0.5" fill-rule="evenodd" clip-rule="evenodd" d="M583.926 125.703C584.139 125.395 585.528 123.254 584.829 123.391C586.253 123.112 582.87 125.752 586.418 124.132C584.733 125.724 585.706 127.79 585.728 129.932C585.765 133.409 585.183 136.857 584.528 140.26C583.494 145.638 581.952 150.867 579.715 155.869C574.838 166.77 566.557 177.264 556.726 184.08C551.873 187.445 547.116 188.59 541.581 190.139C538.085 191.118 537.808 192.927 535.952 196.319C532.088 203.386 528.293 210.427 524.886 217.731C520.817 226.454 516.868 235.186 513.142 244.062C500.591 273.961 490.375 304.937 485.01 336.993C484.879 318.102 489.249 298.646 494.761 280.64C498.777 267.521 504.004 254.875 509.58 242.357C510.931 239.324 512.978 235.423 513.552 232.075C513.954 229.729 512.726 227.473 512.163 225.002C509.971 215.378 510.128 204.597 512.053 194.922C514.176 184.253 520.315 179.302 530.699 177.79C534.497 177.238 539.324 177.44 542.807 175.821C546.601 174.057 548.166 168.261 550.324 164.54C556.118 154.546 563.004 144.96 570.91 136.538C573.099 134.206 575.453 132.055 577.95 130.061C579.525 128.803 582.852 127.253 583.926 125.703Z" fill="#89C5CC"/>
<path opacity="0.5" fill-rule="evenodd" clip-rule="evenodd" d="M467.48 316.592H504.334C505.992 316.592 507.335 317.935 507.335 319.592C507.335 319.738 507.324 319.885 507.303 320.03L504.454 339.345C503.586 345.233 498.533 349.595 492.581 349.595H479.233C473.282 349.595 468.229 345.233 467.36 339.345L464.512 320.03C464.27 318.39 465.403 316.865 467.042 316.624C467.187 316.602 467.334 316.592 467.48 316.592Z" fill="#C1DEE2"/>
</g>
<path fill-rule="evenodd" clip-rule="evenodd" d="M138.214 65.6034C136.164 60.1121 135.611 54.0943 138.106 48.4816C145.295 32.3098 167.07 44.3468 168.523 54.3536C169.975 64.3604 161.729 85.4116 155.378 84.8002C152.845 84.5563 148.442 81.3028 144.52 76.4532L139.576 99.8954L120.966 93.139L138.214 65.6034Z" fill="#E8B88C"/>
<path fill-rule="evenodd" clip-rule="evenodd" d="M157.994 51.9062C154.956 52.402 152.198 54.3966 148.773 57.0834C148.322 56.685 147.789 56.3629 147.189 56.1449C144.619 55.212 141.78 56.5388 140.847 59.1084C140.374 60.4128 140.482 61.7867 141.04 62.9455C139.412 64.0742 137.629 65.2235 135.652 66.3595C131.617 61.3912 131.055 50.9768 139.142 44.0562C149.714 28.1504 169.799 47.697 175.488 46.4324C174.199 53.1294 169.089 57.051 157.994 51.9062Z" fill="#572A00"/>
<path fill-rule="evenodd" clip-rule="evenodd" d="M90.0005 166.838L130.49 269.319L157.647 355.957H168.37L126.854 166.838L90.0005 166.838Z" fill="#E8B88C"/>
<path fill-rule="evenodd" clip-rule="evenodd" d="M88.1866 166.838C87.7554 202.85 81.4676 251.335 80.463 253.58C79.7933 255.077 56.6733 274.108 11.103 310.674L18.4889 318.578C72.2576 287.227 100.386 269.461 102.874 265.279C106.606 259.007 118.757 201.29 128.513 166.838H88.1866Z" fill="#E8B88C"/>
<path fill-rule="evenodd" clip-rule="evenodd" d="M10.582 308.242C8.01518 309.246 6.23854 310.17 5.2521 311.012C4.05237 312.036 2.45739 313.717 0.467159 316.054C1.55157 317.348 11.2974 328.975 29.7046 350.937C33.6881 349.092 34.9899 347.082 33.61 344.91C32.2301 342.737 31.1023 340.917 30.2267 339.448L24.4127 316.596C24.3008 316.156 23.8436 315.919 23.3914 316.067C23.3837 316.069 23.376 316.072 23.3683 316.074L19.7753 317.354C17.3525 316.321 15.6673 315.239 14.7199 314.109C13.9501 313.19 13.2861 311.581 12.7277 309.282L12.7277 309.282C12.5135 308.399 11.6048 307.915 10.6982 308.201C10.6591 308.213 10.6204 308.227 10.582 308.242Z" fill="#191847"/>
<path fill-rule="evenodd" clip-rule="evenodd" d="M153.256 351.958C152.333 354.421 151.871 356.265 151.871 357.488C151.871 358.975 152.119 361.146 152.615 364C154.341 364 169.85 364 199.143 364C200.352 360.003 199.654 357.845 197.049 357.526C194.444 357.207 192.28 356.92 190.557 356.663L168.931 347.022C168.515 346.836 168.027 347.023 167.842 347.439C167.839 347.447 167.836 347.454 167.833 347.461L166.443 350.833C164.031 351.958 162.071 352.521 160.564 352.521C159.339 352.521 157.647 352.026 155.488 351.037L155.488 351.037C154.66 350.657 153.681 351.02 153.301 351.849C153.285 351.885 153.269 351.921 153.256 351.958Z" fill="#191847"/>
<path fill-rule="evenodd" clip-rule="evenodd" d="M130.423 347.5L168.209 341.5L130.423 166.838L92.6611 173.5L130.423 347.5Z" fill="#BBC6C6"/>
<path fill-rule="evenodd" clip-rule="evenodd" d="M21.6492 297.922L48.0005 326.5C83.2256 288.028 104.153 268.234 110 256.5C115.848 244.766 114.335 218.678 119 166.838H81.0603C78.5116 212.444 76.7936 236.309 75.9063 238.431C75.019 240.553 56.9333 260.384 21.6492 297.922Z" fill="#DCE2E2"/>
<path fill-rule="evenodd" clip-rule="evenodd" d="M152.778 121.521L184.474 113.126C190.478 108.759 196.11 105.607 201.37 103.669C202.889 103.435 205.383 103.681 202.144 107.122C198.905 110.563 195.653 114.327 196.496 115.842C197.339 117.357 200.624 116.343 201.488 118.727C202.063 120.316 196.644 121.264 185.229 121.57L160.355 135.134L152.778 121.521ZM193.318 145.223L207.246 141.515C210.584 135.392 213.455 132.606 215.858 133.156C217.908 132.754 212.662 140.237 216.325 140.381C219.987 140.524 230.056 136.299 231.204 137.945C232.903 140.381 229.529 145.739 226.534 148.079C220.936 152.452 216.953 153.437 207.64 153.714C202.77 153.859 197.216 155.189 190.977 157.703L193.318 145.223Z" fill="#E8B88C"/>
<path fill-rule="evenodd" clip-rule="evenodd" d="M140.022 114.757C149.827 117.069 163.377 118.224 179.473 112.828L181.928 126.364C169.978 133.519 154.549 138.012 142.831 134.766C133.596 132.208 131.622 119.786 140.022 114.757Z" fill="url(#paint0_linear)"/>
<path fill-rule="evenodd" clip-rule="evenodd" d="M148.363 137.552C158.105 142.705 176.269 143.952 202.854 141.291C205.818 155.329 206.412 164.961 204.636 170.188C180.968 175.961 161.794 176.406 146.911 173.072C145.212 181.972 142.079 190.065 136.601 196.815C125.34 210.691 85.6967 185.473 70.4531 184.744C68.6518 152.932 89.2209 145.264 93.9073 126.351C99.0394 105.639 123.549 77.8601 125.996 78.4646L148.315 83.977C145.639 100.102 147.531 119.069 148.363 137.552Z" fill="url(#paint1_linear)"/>
<line x1="134.133" y1="183.345" x2="262.319" y2="215.996" stroke="#C43392" stroke-width="35"/>
<circle cx="127.5" cy="212.5" r="25.5" fill="#C33392"/>
<path fill-rule="evenodd" clip-rule="evenodd" d="M358.119 113.223C359.12 107.366 361.769 101.742 366.994 97.906C382.048 86.8537 395.666 107.786 391.751 117.389C387.835 126.993 369.255 141.9 363.764 138.38C361.574 136.976 359.25 132.013 358.202 125.851L341.392 144.438L327.903 129.696L358.119 113.223Z" fill="#FFDBBA"/>
<path fill-rule="evenodd" clip-rule="evenodd" d="M365.807 87.4584C365.881 86.5515 366.371 85.6777 366.856 84.8699C367.361 84.0309 367.878 83.1922 368.484 82.4069C369.694 80.8379 371.408 79.3871 373.47 79.3964C375.124 79.404 376.627 80.2401 377.72 81.2598C378.448 81.9391 379.024 82.7823 379.415 83.6917C379.804 84.5941 379.861 85.6068 380.172 86.5372C381.804 85.2061 383.721 84.0418 385.787 83.6397C387.774 83.2529 389.577 83.7879 390.982 84.944C392.424 86.1306 393.306 87.7589 393.708 89.5709C393.809 90.0246 393.898 90.4826 393.951 90.9483C393.996 91.3382 394.013 91.7681 394.2 92.1117C394.409 92.4949 394.749 92.4854 395.185 92.481C395.697 92.4758 396.201 92.5304 396.691 92.6253C398.857 93.0452 400.792 94.3604 401.532 96.3381C401.874 97.2493 402.004 98.3055 401.774 99.313C401.568 100.211 400.916 101.278 401.029 102.184C401.077 102.568 401.459 102.546 401.826 102.623C402.378 102.738 402.943 102.816 403.491 102.941C404.262 103.117 404.982 103.404 405.611 103.831C406.532 104.455 407.486 105.588 406.574 106.757C406.232 107.196 405.723 107.51 405.275 107.84C404.659 108.292 404.042 108.743 403.419 109.185C402.946 109.521 402.479 109.835 401.976 110.123C401.708 110.277 401.16 110.511 401.013 110.797C400.829 111.155 401.476 111.545 401.673 111.78C402.061 112.242 402.386 112.762 402.557 113.347C402.69 113.802 402.763 114.335 402.491 114.804C402.324 115.091 402.055 115.28 401.769 115.452C401.426 115.657 401.316 115.845 401.045 116.136C401.912 116.466 404.518 117.946 403.598 119.184C403.291 119.596 402.674 119.766 402.211 119.889C401.398 120.105 400.558 120.198 399.736 120.262C398.021 120.396 396.317 120.266 394.681 119.96C395.165 121.526 393.854 123.148 392.031 122.975C391.226 122.899 390.609 122.404 390.144 121.844C389.974 121.639 389.796 121.286 389.617 121.163C389.521 121.096 389.363 121.071 389.249 120.963C388.499 120.251 387.913 119.228 387.417 118.333C386.532 116.739 386.063 114.917 386.158 113.028C386.183 112.543 386.137 112.198 385.81 111.849C385.524 111.542 385.155 111.316 384.864 111.014C384.094 110.216 383.851 109.116 383.444 108.115C382.295 109.001 380.81 109.737 379.431 110.157C378.306 110.499 377.535 109.884 376.822 109.243C374.542 107.191 372.737 104.724 370.678 102.48C372.137 105.102 373.974 107.535 375.321 110.217C375.93 111.43 374.541 111.283 373.668 111.281C372.231 111.277 370.762 111.612 369.382 112.149C369.906 109.823 369.173 107.11 367.189 105.832C364.997 104.419 361.125 105.388 360.269 108.194C359.773 109.823 360.469 111.423 360.926 112.856C359.295 112.813 357.79 113.739 356.23 114.2C355.461 114.427 354.532 114.619 353.853 114.249C353.602 114.112 353.385 113.887 353.07 113.877C352.68 113.866 352.398 114.022 351.989 113.932C350.358 113.572 349.015 111.993 349.18 110.315C349.329 108.798 350.89 107.845 352.37 107.759C351.884 106.318 350.749 103.906 352.884 102.841C350.977 100.441 349.913 91.6067 355.585 92.2034C355.078 89.6793 356.162 86.0528 359.331 85.2767C361.772 84.679 364.279 85.9606 365.807 87.4584Z" fill="#D04002"/>
<path fill-rule="evenodd" clip-rule="evenodd" d="M253.226 168.396L286.514 273.2L302.639 362.329H315.282L298.243 168.396H253.226Z" fill="#1A1A1E"/>
<path fill-rule="evenodd" clip-rule="evenodd" d="M241.318 168.396C243.579 225.939 240.918 255.621 240.412 260.849C239.906 266.077 232.976 299.976 216.572 364.084L230.045 359.628C255.97 300.831 264.804 270.273 267.778 262.552C270.751 254.832 278.648 223.446 291.469 168.396H241.318Z" fill="#1A1A1E"/>
<path fill-rule="evenodd" clip-rule="evenodd" d="M219.312 358.69C218.253 358.248 217.009 358.713 216.61 359.789C215.978 361.493 215.189 363.894 215.189 365.275C215.189 367.579 215.986 372 215.986 372C218.762 372 265.878 372 265.878 372C265.878 372 267.823 365.808 263.633 365.314C259.443 364.821 256.672 364.423 256.672 364.423L233.571 354.505C233.063 354.287 232.475 354.522 232.257 355.03L230.814 358.402C230.814 358.402 226.935 360.145 224.51 360.145C223.09 360.145 220.892 359.35 219.312 358.69Z" fill="#673506"/>
<path fill-rule="evenodd" clip-rule="evenodd" d="M302.463 358.69C301.403 358.248 300.16 358.713 299.76 359.789C299.128 361.493 298.34 363.894 298.34 365.275C298.34 367.579 299.137 372 299.137 372C301.913 372 349.029 372 349.029 372C349.029 372 350.974 365.808 346.784 365.314C342.593 364.821 339.822 364.423 339.822 364.423L316.722 354.505C316.214 354.287 315.625 354.522 315.408 355.03L313.964 358.402C313.964 358.402 310.085 360.145 307.66 360.145C306.241 360.145 304.042 359.35 302.463 358.69Z" fill="#673506"/>
<path fill-rule="evenodd" clip-rule="evenodd" d="M412.535 182.529L381.623 166.642L377.656 182.171L406.987 189.4C416.143 197.162 421.074 200.245 421.779 198.649C422.373 197.303 421.588 196.227 420.865 195.236C420.302 194.464 419.776 193.743 419.969 192.987C420.41 191.259 425.693 190.709 430.73 190.392C435.766 190.076 433.994 188.145 432.634 187.257C427.109 185.03 420.409 183.454 412.535 182.529ZM343.312 238.194L337.866 204.926L322.57 211.205L334.256 238.06C333.33 249.749 333.743 255.385 335.495 254.968C336.972 254.616 337.392 253.367 337.779 252.217C338.081 251.321 338.362 250.485 339.108 250.179C340.809 249.481 344.453 253.205 347.754 256.882C351.055 260.558 351.591 258.038 351.508 256.462C350.026 250.883 347.294 244.794 343.312 238.194Z" fill="#FFDBBA"/>
<path fill-rule="evenodd" clip-rule="evenodd" d="M346.046 137.155C336.775 167.11 337.085 197.156 343.882 234.574L325.527 235.673C309.393 202.16 301.59 183.785 314.041 159.008C317.166 152.79 331.264 136.918 338.297 128.199L346.046 137.155Z" fill="url(#paint2_linear)"/>
<path fill-rule="evenodd" clip-rule="evenodd" d="M248.269 173.079L296.658 219.291C296.658 219.291 329.949 155.477 348.127 137.207C348.745 136.586 348.682 134.392 348.018 134.037C340.731 130.143 337.027 121.248 337.027 121.248C307.257 127.995 280.76 146.001 248.269 173.079Z" fill="#F2F2F2"/>
<path fill-rule="evenodd" clip-rule="evenodd" d="M321.248 159.847C296.653 198.169 269.984 223.299 253.298 207.365L227.497 182.724C250.713 152.388 299.353 126.036 328.44 117.093C329.55 116.751 331.737 116.196 333.649 118.022L341.146 125.182C341.14 125.194 341.133 125.207 341.127 125.22C343.365 127.392 345.767 129.844 348.369 132.499C361.765 146.168 380.442 165.228 409.094 179.288L398.958 194.02C366.831 187.392 337.276 177.8 321.248 159.847Z" fill="url(#paint3_linear)"/>
<defs>
<linearGradient id="paint0_linear" x1="159.038" y1="111.832" x2="157.546" y2="133.716" gradientUnits="userSpaceOnUse">
<stop stop-color="#0084E9"/>
<stop offset="1" stop-color="#292DC2"/>
</linearGradient>
<linearGradient id="paint1_linear" x1="156.766" y1="89.6721" x2="134.922" y2="190.712" gradientUnits="userSpaceOnUse">
<stop stop-color="#0084E9"/>
<stop offset="1" stop-color="#292DC2"/>
</linearGradient>
<linearGradient id="paint2_linear" x1="362.655" y1="168.437" x2="312.851" y2="200.168" gradientUnits="userSpaceOnUse">
<stop stop-color="#0084E9"/>
<stop offset="1" stop-color="#292DC2"/>
</linearGradient>
<linearGradient id="paint3_linear" x1="361.677" y1="139.166" x2="288.206" y2="221.087" gradientUnits="userSpaceOnUse">
<stop stop-color="#0084E9"/>
<stop offset="1" stop-color="#292DC2"/>
</linearGradient>
</defs>
</svg>
