<svg width="521" height="372" viewBox="0 0 521 372" fill="none" xmlns="http://www.w3.org/2000/svg">
<g opacity="0.5">
<path fill-rule="evenodd" clip-rule="evenodd" d="M50.3629 65.8628C50.609 60.5708 50.9473 55.2863 51.1255 49.9911C51.2138 47.3672 51.2831 44.743 51.3499 42.1186C51.3647 41.5342 51.38 40.9501 51.3931 40.3657C51.4365 38.3804 51.201 38.2179 53.1989 38.0417C62.1119 37.255 71.0601 36.9942 79.9839 36.2824C90.7461 35.4239 101.564 34.8312 112.357 34.5655C117.153 34.4472 121.97 34.2022 126.767 34.3513C127.829 34.3843 129.916 34.1078 130.334 34.934C130.515 35.2909 130.136 36.519 130.088 36.9309C129.937 38.2174 129.797 39.5085 129.71 40.8014C129.2 48.4272 129.504 56.2453 130.981 63.7555C127.517 61.8022 123.14 60.122 119.103 60.4555C114.987 60.7954 111.908 63.1736 108.613 65.3625C106.749 66.6005 106.122 66.9261 104.262 65.7268C102.66 64.6931 101.144 63.5112 99.6327 62.3513C97.2999 60.5612 95.0984 58.6203 92.8362 56.7436C88.6769 53.2931 82.9466 48.3816 77.2019 49.8277C73.0977 50.8609 69.3078 53.1166 65.7454 55.3242C60.453 58.604 55.662 62.6205 50.3629 65.8628ZM121.694 32.0011C101.245 32.0011 80.9492 33.9835 60.558 35.0559C58.4285 35.1678 56.3061 35.3327 54.1839 35.5375C52.7696 35.674 49.3111 35.1007 48.3843 36.3092C47.7659 37.1154 48.2973 37.2364 48.3843 38.0024C48.494 38.9679 48.4289 40.1117 48.4006 41.1336C48.3325 43.5958 48.261 46.0578 48.205 48.5203C47.994 57.827 47.8621 67.132 48.2388 76.4363C48.3209 78.4655 49.0604 81.275 48.6558 83.2468C48.3631 84.6743 47.384 85.5431 49.6418 85.8069C51.8635 86.0666 54.5801 85.4061 56.8039 85.1946C59.0405 84.9817 61.2768 84.7507 63.516 84.5661C73.2518 83.7639 83.082 83.8851 92.8434 83.6185C102.693 83.3496 112.546 83.3323 122.398 83.3269C126.521 83.3247 131.231 83.5563 135.254 82.4218C136.669 82.0226 136.898 81.8259 136.549 80.4217C136.483 80.1553 136.055 80.057 135.93 79.5754C135.759 78.92 135.847 78.1234 135.807 77.4412C135.677 75.2131 135.631 72.981 135.526 70.7515C135.351 67.0263 134.709 63.4111 134.234 59.7234C133.686 55.4646 133.714 51.1405 133.703 46.8539C133.697 44.4762 133.758 42.1064 133.949 39.7354C134.071 38.2146 134.82 35.9442 134.44 34.526C134.251 33.8198 133.942 33.2598 133.207 32.956C132.741 32.7632 132.349 32.9141 131.889 32.8653C131.343 32.8073 131.003 32.7307 130.348 32.5825C127.546 31.9474 124.549 32.0011 121.694 32.0011Z" fill="#69A1AC"/>
<path fill-rule="evenodd" clip-rule="evenodd" d="M110.377 42.1259C110.376 43.6079 110.144 45.7949 110.828 47.1904C111.694 48.9605 112.779 48.4072 113.066 46.7438C113.23 45.7907 113.226 42.9701 112.92 42.1259C112.487 40.931 110.377 40.1172 110.377 42.1259Z" fill="#89C5CC"/>
<path fill-rule="evenodd" clip-rule="evenodd" d="M112.864 42.6979C111.472 42.747 107.42 42.413 106.479 43.5317C104.864 45.4505 107.675 45.7904 108.882 45.6829C110.279 45.5587 114.595 45.8619 115.531 44.7419C117.095 42.8682 113.958 42.658 112.864 42.6979Z" fill="#89C5CC"/>
<path fill-rule="evenodd" clip-rule="evenodd" d="M58.8715 92.2085C64.9883 93.271 63.0853 102.597 57.2975 100.437C55.2809 99.6842 52.3093 97.5093 53.424 94.9468C54.2566 93.0322 56.9703 92.0261 58.8715 92.2085ZM56.3391 89.3087C52.361 89.9784 49.6415 94.2832 51.0054 98.0382C52.3211 101.661 57.3118 104.314 60.9922 103.012C64.5057 101.769 66.2585 97.094 65.074 93.6742C63.8363 90.1011 59.8043 88.7253 56.3391 89.3087Z" fill="#89C5CC"/>
<path fill-rule="evenodd" clip-rule="evenodd" d="M93.5438 93.2991C92.0211 93.4256 90.7049 94.4918 89.1725 94.6806C87.7398 94.8571 86.5523 94.3668 85.2108 93.9749C83.5891 93.5015 82.1019 93.2932 80.4447 93.7139C79.1784 94.0356 77.9293 94.8972 76.6139 95.0012C74.0255 95.2056 71.0172 92.2524 68.9964 95.5925C68.0276 97.1938 69.4343 98.2253 70.8833 97.4785C72.394 96.7002 71.6523 96.4214 73.5262 96.8813C75.0896 97.2646 76.3533 97.4728 77.9194 96.9355C79.3382 96.449 80.5835 95.5585 82.1253 95.4584C83.635 95.3606 84.9484 96.0482 86.3916 96.345C88.1663 96.7098 89.7367 96.4337 91.4182 95.8774C93.0177 95.3483 93.6558 95.0589 95.2698 95.5309C96.2918 95.8299 98.5244 96.7795 99.519 96.0142C101.239 94.6912 98.9364 94.4977 98.0295 94.3096C96.5696 94.0072 95.0589 93.1751 93.5438 93.2991Z" fill="#89C5CC"/>
<path fill-rule="evenodd" clip-rule="evenodd" d="M128.394 92.4106C128.406 92.4199 128.418 92.4293 128.43 92.4387C128.418 92.4293 128.406 92.4199 128.394 92.4106ZM126.899 92.0977C129.122 92.2409 131.526 96.2909 128.58 96.4346C126.507 96.5359 124.187 92.9894 126.899 92.0977ZM126.587 88.7836C119.557 90.7467 122.77 100.658 129.551 99.5132C132.631 98.9931 133.675 95.4247 132.657 92.7833C132.22 91.6488 131.367 90.6923 130.348 90.0394C129.596 89.5578 127.446 88.5443 126.587 88.7836Z" fill="#89C5CC"/>
<path fill-rule="evenodd" clip-rule="evenodd" d="M93.788 109.475C99.9744 109.262 106.161 109.05 112.354 108.993C115.71 108.962 119.048 109.02 122.399 109.213C123.885 109.298 125.371 109.38 126.858 109.443C127.114 109.454 127.469 109.436 127.86 109.417C128.781 109.372 129.905 109.317 130.434 109.596C133.392 111.161 127.365 111.333 126.632 111.321C124.991 111.293 123.352 111.212 121.713 111.131C120.281 111.06 118.848 110.989 117.414 110.954C108.215 110.728 98.9605 111.141 89.7461 111.553C87.6338 111.647 85.5236 111.741 83.4167 111.828C81.1798 111.92 78.9434 111.979 76.7073 112.038C73.5105 112.123 70.3142 112.208 67.1175 112.388C65.8969 112.456 64.6765 112.529 63.4561 112.602L63.456 112.602L63.456 112.602C61.7077 112.706 59.9594 112.81 58.2105 112.902C56.8413 112.974 55.4716 113.044 54.1005 113.079C53.8537 113.085 53.532 113.119 53.1809 113.157C52.3309 113.247 51.3081 113.357 50.7556 113.131C50.0909 112.859 49.5534 112.479 49.9188 111.673C50.2279 110.992 51.351 111.074 52.1699 111.134C52.3935 111.15 52.5944 111.164 52.7498 111.161C55.3669 111.111 57.9782 110.964 60.5905 110.804C61.5462 110.745 62.5016 110.685 63.4569 110.625C68.4301 110.312 73.3987 110 78.3846 109.915C83.5211 109.827 88.6544 109.651 93.788 109.475ZM126.098 150.19L127.877 150.169C128.795 150.249 129.206 151.213 128.616 151.954C128.165 152.521 126.427 152.547 125.294 152.564H125.294H125.294C124.981 152.568 124.713 152.572 124.532 152.587C121.576 152.824 118.625 152.931 115.659 152.96C109.414 153.019 103.192 153.287 96.9567 153.642C90.5742 154.006 84.1863 154.143 77.7981 154.28H77.798H77.798C73.098 154.381 68.3979 154.481 63.6997 154.672C61.0092 154.782 58.3185 154.864 55.6267 154.934C55.3375 154.942 54.9528 154.983 54.5176 155.03C52.8174 155.214 50.3468 155.481 49.7869 154.13C49.2902 152.932 49.9807 152.38 50.9906 152.129C50.831 151.42 50.8605 150.423 50.8774 149.851C50.8825 149.68 50.8865 149.547 50.8838 149.471C50.8584 148.755 50.8407 148.039 50.823 147.322C50.803 146.51 50.7829 145.699 50.7516 144.887C50.7233 144.151 50.6969 143.414 50.6705 142.676C50.5663 139.768 50.4619 136.852 50.238 133.955C50.1348 132.618 49.9709 131.296 49.8073 129.977C49.546 127.871 49.2855 125.77 49.2735 123.62C49.2713 123.233 49.252 122.749 49.2302 122.204C49.1184 119.412 48.9418 114.998 50.6747 113.654C53.7302 111.871 53.1262 117.018 52.8567 119.314C52.8122 119.694 52.7768 119.995 52.7685 120.175C52.5929 123.994 52.8311 127.645 53.2155 131.44C53.4749 134.003 53.3234 136.558 53.1716 139.117C53.1174 140.03 53.0632 140.945 53.0276 141.86C53.01 142.313 52.9944 142.766 52.9788 143.219C52.9307 144.612 52.8826 146.003 52.7776 147.395C52.7663 147.545 52.7625 147.834 52.7577 148.203C52.744 149.243 52.722 150.922 52.4994 151.94C52.9735 151.92 53.4335 151.925 53.8136 151.929H53.8136H53.8137C54.0559 151.932 54.2657 151.934 54.426 151.929C55.1554 151.907 55.8849 151.886 56.6143 151.864H56.6144H56.6144C58.769 151.801 60.9236 151.738 63.0778 151.657C68.1636 151.466 73.2506 151.402 78.3375 151.338H78.3377C84.3461 151.263 90.3544 151.187 96.3603 150.902C106.258 150.431 116.19 150.311 126.098 150.19ZM127.934 112.853C127.929 119.395 128.435 125.758 129.026 132.274C129.391 136.304 129.684 140.35 129.918 144.391C129.929 144.578 129.927 144.89 129.925 145.281V145.282C129.913 147.516 129.887 152.331 132.096 151.179C133.763 150.309 133.122 145.267 132.768 142.477C132.69 141.865 132.626 141.361 132.603 141.033C132.555 140.336 132.507 139.639 132.459 138.942L132.459 138.94C132.237 135.701 132.015 132.464 131.723 129.229L131.661 128.547C131.323 124.81 130.985 121.076 130.925 117.321C130.92 117.011 130.95 116.578 130.984 116.09C131.081 114.676 131.211 112.794 130.624 112.044C129.798 110.987 127.936 111.3 127.934 112.853Z" fill="#69A1AC"/>
<path fill-rule="evenodd" clip-rule="evenodd" d="M94.0708 128.891C101.973 125.316 109.966 121.699 118.183 119.124C118.777 118.939 119.153 119.551 119.018 120.065C118.879 120.594 117.593 121.046 116.741 121.346C116.486 121.435 116.27 121.511 116.135 121.572C114.987 122.084 113.836 122.591 112.685 123.097C111.507 123.615 110.329 124.134 109.153 124.659C106.71 125.751 104.264 126.838 101.818 127.925C99.1981 129.089 96.5785 130.253 93.9617 131.423C93.8627 131.468 93.7636 131.512 93.6646 131.556C97.2223 132.821 100.76 134.142 104.282 135.502C105.486 135.967 106.685 136.442 107.885 136.917C108.564 137.185 109.242 137.454 109.922 137.721C110.143 137.808 110.528 137.925 110.991 138.067C112.5 138.527 114.833 139.24 115.006 139.959C115.286 141.132 112.065 139.998 110.849 139.57C110.688 139.513 110.562 139.469 110.484 139.444C108.691 138.871 106.919 138.232 105.147 137.593L104.902 137.505C103.498 136.999 102.097 136.488 100.695 135.977C97.9568 134.979 95.2188 133.98 92.4659 133.022C92.0767 132.887 91.6873 132.752 91.2978 132.617C86.8797 134.602 82.4704 136.605 78.0754 138.641C75.7191 139.732 73.3752 140.849 71.0378 141.981C70.5277 142.228 69.896 142.609 69.2097 143.024C67.5648 144.018 65.6068 145.202 64.2598 145.172C63.5377 145.156 63.051 145.002 62.9755 144.126C62.8979 143.223 64.0569 142.749 64.8903 142.408C65.0897 142.327 65.2706 142.253 65.4113 142.182C67.9095 140.933 70.4232 139.715 72.944 138.513C77.9507 136.125 83.0042 133.832 88.0758 131.585C88.1051 131.572 88.1344 131.559 88.1637 131.546C85.3509 130.594 82.5302 129.665 79.7034 128.755C79.4212 128.664 78.8425 128.504 78.0818 128.293C74.4885 127.298 66.8335 125.178 67.1743 123.94C67.5649 122.523 74.7417 125.112 77.919 126.258C78.5145 126.473 78.9695 126.637 79.213 126.715C83.0118 127.926 86.8001 129.171 90.5686 130.472C91.7342 129.948 92.9015 129.42 94.0708 128.891Z" fill="#89C5CC"/>
<path fill-rule="evenodd" clip-rule="evenodd" d="M60.2134 160.005C62.5264 160.41 64.1579 162.629 63.9042 164.953C63.5612 168.092 60.4321 169.531 57.5414 169.122C54.2614 168.657 53.5715 165.884 55.1606 163.216C55.5125 162.626 55.9171 161.919 56.5566 161.608C56.9963 161.395 57.5565 161.584 57.9105 161.411C59.152 160.807 58.4056 159.845 60.2134 160.005ZM59.1603 157.954C56.3379 158.314 51.1229 161.58 51.387 164.848C51.616 165.227 51.9605 165.382 52.4203 165.313C52.3096 166.021 52.3456 166.721 52.5286 167.414C52.7966 168.314 53.3314 169.051 54.0481 169.636C55.524 170.843 57.5417 171.139 59.3795 170.927C62.8114 170.533 65.5162 168.187 65.709 164.618C65.8971 161.134 62.8558 157.487 59.1603 157.954Z" fill="#89C5CC"/>
<path fill-rule="evenodd" clip-rule="evenodd" d="M72.8304 162.206C71.5641 162.877 69.5608 163.908 68.8181 165.183C68.0336 166.529 68.846 168.002 70.4989 167.365C71.8111 166.86 72.6458 165.253 74.0455 164.738C75.2808 164.284 75.7786 164.515 77.0841 164.968C78.4294 165.434 79.6052 165.884 81.0594 165.77C82.8872 165.626 84.4701 164.567 86.2592 164.326C87.7654 164.122 89.0076 164.709 90.4502 164.942C92.1239 165.212 93.2181 164.579 94.7841 164.249C95.8492 164.024 97.7265 164.938 98.5034 164.596C100.25 163.828 98.4024 162.889 97.4353 162.579C95.8063 162.056 94.8038 162.517 93.2544 162.951C91.5721 163.421 90.8455 163.067 89.2374 162.635C85.984 161.761 83.4706 163.875 80.3868 163.491C77.5316 163.135 75.8232 160.621 72.8304 162.206Z" fill="#89C5CC"/>
<path fill-rule="evenodd" clip-rule="evenodd" d="M126.029 160.644C129.161 163.58 125.643 167.757 122.19 165.411C120.975 164.585 120.955 163.259 121.901 162.072C122.766 160.986 124.666 160.563 126.029 160.644ZM124.868 158.272C121.943 158.841 119.183 160.183 118.918 163.56C118.66 166.854 122.039 168.384 124.878 168.168C131.251 167.683 130.791 157.127 124.868 158.272Z" fill="#89C5CC"/>
</g>
<g opacity="0.5">
<path fill-rule="evenodd" clip-rule="evenodd" d="M221.973 24.0318C213.548 24.1264 205.128 24.4372 196.721 24.9693C188.725 25.4759 180.05 25.0913 172.185 26.6412C169.952 27.081 166.935 29.1165 169.905 31.3553C171.992 32.9293 179.628 31.1187 182.121 30.9656C191.3 30.4015 200.484 29.7256 209.676 29.4009C218.378 29.0933 227.079 28.9848 235.785 28.898C237.114 28.8851 239.321 28.4587 240.645 28.8447C242.546 29.3995 242.095 29.5503 242.238 31.9644C242.496 36.3384 242.424 40.7283 242.338 45.1065C242.254 49.3433 242.097 53.5795 242.112 57.8181C242.123 60.8423 241.156 66.8515 242.674 69.4776C244.858 73.2579 247.124 69.152 247.287 66.64C247.6 61.8355 247.46 56.972 247.461 52.1614C247.462 47.6459 247.494 43.1303 247.335 38.6171C247.22 35.3568 247.686 29.6658 245.93 26.702C244.141 23.6834 239.834 24.3343 236.692 24.1905C231.79 23.965 226.879 23.9808 221.973 24.0318Z" fill="#89C5CC"/>
<path fill-rule="evenodd" clip-rule="evenodd" d="M168.373 29.4806C168.383 37.9648 167.401 46.3923 167.126 54.8668C167 58.763 166.744 63.0415 167.73 66.8663C168.725 70.7282 171.885 71.5651 172.249 67.2537C172.986 58.5232 172.805 49.4703 173.379 40.6697C173.582 37.5626 174.9 31.8683 173.669 28.9587C172.585 26.3957 168.369 25.9045 168.373 29.4806Z" fill="#89C5CC"/>
<path fill-rule="evenodd" clip-rule="evenodd" d="M247.37 66.8778C232.74 68.8145 217.445 68.1085 202.711 68.4128C195.642 68.5589 188.574 68.5682 181.504 68.642C179.037 68.6675 172.771 67.729 170.636 69.1161C167.238 71.3242 170.925 73.0281 173.175 73.0768C187.127 73.3825 201.234 72.7409 215.184 72.2831C221.451 72.0776 227.739 71.9769 233.99 71.4443C237.838 71.1164 242.043 70.7986 245.78 69.7646C246.576 69.5438 248.309 69.5897 248.488 68.5037C248.598 67.832 248.398 66.7358 247.37 66.8778Z" fill="#89C5CC"/>
<path fill-rule="evenodd" clip-rule="evenodd" d="M186.534 79.2103C182.468 79.2339 170.215 77.3454 168.531 81.3103C166.286 86.5983 175.044 85.3638 177.399 85.3035C182.748 85.1662 188.094 85.1514 193.445 85.1537C198.695 85.156 203.945 85.1221 209.194 84.9974C210.715 84.9607 214.255 85.5921 215.129 83.7606C215.794 82.3689 215.269 81.2709 214.043 80.5342C211.092 78.7608 203.427 79.7892 199.972 79.6296C195.5 79.4237 191.012 79.2103 186.534 79.2103Z" fill="#89C5CC"/>
<path fill-rule="evenodd" clip-rule="evenodd" d="M236 80.1893C233.677 80.3275 228.976 79.3696 226.895 80.4328C224.529 81.6417 225.362 83.5344 227.405 84.3662C228.82 84.9419 234.622 84.6399 236 83.9728C237.437 83.277 239.061 80.001 236 80.1893Z" fill="#89C5CC"/>
<path fill-rule="evenodd" clip-rule="evenodd" d="M261.476 30.3129C258.995 30.9939 259.748 45.0837 259.684 47.3174C259.508 53.4371 258.82 61.134 260.854 67.0278C262.151 70.7848 264.641 70.2755 264.217 66.3199C263.844 62.8481 263.205 59.4162 262.928 55.9217C262.302 48.0146 261.45 39.5806 262.042 31.667C262.293 32.1267 264.648 36.3917 265.202 36.0735C265.034 36.1728 262.486 30.0466 261.476 30.3129Z" fill="#89C5CC"/>
<path fill-rule="evenodd" clip-rule="evenodd" d="M289.394 25.1235C284.371 25.1978 279.348 25.2868 274.327 25.426C270.335 25.5373 264.062 24.8814 260.4 26.5607C256.041 28.5601 258.109 33.0153 262.204 33.1095C265.826 33.193 269.689 32.376 273.344 32.2508C283.218 31.9126 293.108 31.8407 302.986 31.7563C311.919 31.6793 321.232 32.6321 330.087 31.2905C331.401 42.9533 327.848 54.6652 329.057 66.4621C329.244 68.293 329.16 70.8802 331.492 71.2972C334.434 71.8237 334.555 68.9091 334.667 66.822C334.986 60.8629 334.813 54.899 335.249 48.932C335.654 43.4023 336.45 37.7507 335.777 32.2123C334.95 25.3968 331.684 25.9432 325.911 25.6598C313.718 25.0618 301.6 24.9445 289.394 25.1235Z" fill="#89C5CC"/>
<path fill-rule="evenodd" clip-rule="evenodd" d="M272.561 66.5366C270.002 66.6011 265.751 65.8125 264.112 68.2665C262.405 70.8197 264.43 73.0469 266.911 73.5711C269.847 74.1913 273.676 73.341 276.724 73.3317C279.898 73.3224 283.073 73.3577 286.247 73.3702C299.855 73.4236 313.522 73.6295 327.12 73.0668C329.019 72.9884 334.409 73.6254 335.724 71.8037C336.89 70.1879 336.074 68.7387 334.538 67.9158C332.018 66.5654 326.841 67.0789 324.038 66.9717C320.576 66.84 317.11 66.7969 313.646 66.743C299.975 66.532 286.232 66.1984 272.561 66.5366Z" fill="#89C5CC"/>
<path fill-rule="evenodd" clip-rule="evenodd" d="M284.073 78.3406C278.98 78.4273 273.547 78.2037 268.505 78.9761C264.072 79.6553 263.526 83.9407 268.298 84.4422C272.684 84.9033 278 84.0418 282.407 83.7589C283.973 83.6582 285.793 83.8011 286.543 82.0707C287.326 80.263 285.829 78.5294 284.073 78.3406Z" fill="#89C5CC"/>
<path fill-rule="evenodd" clip-rule="evenodd" d="M322.572 78.7904C319.854 78.8581 311.914 77.6896 310.568 80.794C308.327 85.9627 319.075 83.999 321.137 83.9229C323.735 83.8274 333.863 85.3448 333.866 81.2077C333.868 77.151 325.061 78.7287 322.572 78.7904Z" fill="#89C5CC"/>
<path fill-rule="evenodd" clip-rule="evenodd" d="M167.934 104.474C167.94 113.877 167.355 123.367 168.213 132.746C168.567 136.625 168.507 144.056 170.754 147.344C172.348 149.679 174.56 149.515 175.432 146.712C176.014 144.838 175.082 141.091 174.979 139.086C174.878 137.163 174.762 135.24 174.673 133.316C174.444 128.358 174.462 123.409 174.53 118.449C174.589 114.194 175.613 108.566 174.647 104.474C173.747 100.661 167.934 99.7691 167.934 104.474Z" fill="#69A1AC"/>
<path fill-rule="evenodd" clip-rule="evenodd" d="M262.43 96.2022C246.117 96.6114 229.768 96.2458 213.469 97.0535C205.431 97.4515 197.425 98.3259 189.427 99.1976C185.498 99.6262 181.571 100.068 177.648 100.551C176.465 100.697 166.629 101.078 170.328 104.819C171.944 106.452 177.084 104.746 179.118 104.505C183.056 104.04 187.002 103.635 190.946 103.218C198.45 102.424 205.964 101.672 213.5 101.255C231.25 100.272 249.072 100.567 266.839 99.9111C271.645 99.7339 276.437 99.6067 281.245 99.796C282.507 99.8457 291.784 100.317 287.756 96.8907C285.852 95.2698 278.671 96.1062 276.29 96.0575C271.671 95.9619 267.048 96.0863 262.43 96.2022Z" fill="#69A1AC"/>
<path fill-rule="evenodd" clip-rule="evenodd" d="M284.669 112.044C284.588 107.699 284.508 103.355 284.31 99.0146C284.102 94.4434 290.328 93.7508 292.175 97.4508C293.504 100.115 293.27 104.647 293.07 108.532C292.989 110.097 292.914 111.558 292.949 112.748C293.028 115.477 293.229 118.298 293.432 121.157C293.944 128.35 294.472 135.782 293.128 142.572C292.474 145.872 289.69 147.607 287.837 145.808C287.835 145.812 287.832 145.815 287.83 145.819C287.133 146.846 284.963 146.844 283.366 146.842C282.926 146.842 282.529 146.841 282.218 146.863C277.841 147.16 273.545 147.662 269.207 148.312C260.563 149.608 251.994 150.404 243.256 150.621C237.328 150.767 231.391 150.816 225.452 150.866C214.081 150.96 202.703 151.055 191.368 151.832C187.546 152.095 183.782 152.545 180.023 153.264C179.703 153.326 179.348 153.405 178.97 153.489C176.174 154.11 172.128 155.01 171.852 151.104C171.523 146.468 181.571 145.861 186.742 145.548C187.531 145.5 188.207 145.46 188.715 145.412C204.415 143.952 220.362 144.178 236.13 144.402C236.894 144.413 237.657 144.423 238.42 144.434C239.651 144.451 240.881 144.471 242.111 144.492C248.861 144.603 255.604 144.714 262.353 144.301C265.424 144.113 268.535 144.017 271.652 143.92C276.625 143.766 281.613 143.611 286.476 143.084C285.743 140.24 285.615 136.884 285.494 133.721C285.447 132.489 285.401 131.287 285.32 130.155C284.893 124.126 284.781 118.085 284.669 112.044Z" fill="#69A1AC"/>
<path fill-rule="evenodd" clip-rule="evenodd" d="M297.871 102.363C295.668 102.663 293.829 104.549 294.813 106.941C296.053 109.953 299.744 108.776 302.182 108.586C309.932 107.978 318.024 109.191 325.68 108.276C327.771 108.026 330.805 106.887 328.927 104.077C327.516 101.966 322.374 102.336 320.189 102.134C312.714 101.443 305.337 101.627 297.871 102.363Z" fill="#C1DEE2"/>
<path fill-rule="evenodd" clip-rule="evenodd" d="M310.952 115.504C307.946 115.706 300.949 115.547 299.683 118.967C297.411 125.102 306.31 122.94 309.019 122.591C312.167 122.186 319.587 123.271 321.263 120.219C324.26 114.761 313.588 115.322 310.952 115.504Z" fill="#C1DEE2"/>
<path fill-rule="evenodd" clip-rule="evenodd" d="M303.223 128.968C301.797 130.394 301.795 132.942 303.223 134.368C304.971 136.115 308.78 135.752 311.078 135.88C314.282 136.059 323.484 137.753 325.076 133.98C327.222 128.89 318.889 128.996 316.148 128.707C312.98 128.374 305.848 126.341 303.223 128.968Z" fill="#C1DEE2"/>
<path fill-rule="evenodd" clip-rule="evenodd" d="M190.901 41.8288C190.901 47.3018 199.449 47.3018 199.449 41.8288C199.449 36.3855 190.901 36.3024 190.901 41.8288Z" fill="#89C5CC"/>
<path fill-rule="evenodd" clip-rule="evenodd" d="M207.115 41.8909C207.115 48.1479 216.851 48.1354 216.851 41.8909C216.851 35.6557 207.115 35.5922 207.115 41.8909Z" fill="#89C5CC"/>
<path fill-rule="evenodd" clip-rule="evenodd" d="M197.306 50.2101C192.573 51.5169 196.933 55.5278 199.131 56.4439C202.624 57.9006 207.39 58.974 210.884 56.7905C212.274 55.9216 213.402 54.767 212.383 53.0807C211.298 51.2854 209.812 52.0838 208.16 52.2494C206.066 52.46 204.375 52.4276 202.353 51.7563C200.845 51.2553 198.952 49.7574 197.306 50.2101Z" fill="#89C5CC"/>
<path fill-rule="evenodd" clip-rule="evenodd" d="M283.154 42.1753C283.154 45.8772 288.902 45.8772 288.902 42.1753C288.902 38.4735 283.154 38.4735 283.154 42.1753Z" fill="#89C5CC"/>
<path fill-rule="evenodd" clip-rule="evenodd" d="M295.866 42.7325C295.866 46.8454 302.251 46.8459 302.251 42.7325C302.251 38.6192 295.866 38.6197 295.866 42.7325Z" fill="#89C5CC"/>
<path fill-rule="evenodd" clip-rule="evenodd" d="M295.393 51.6584C292.038 52.0907 282.337 53.0742 281.794 57.2088C280.957 63.5879 291.587 58.4252 294.013 57.9242C297.103 57.2863 299.863 57.4529 302.948 57.5767C304.641 57.6444 306.894 57.9191 306.717 55.3389C306.425 51.1021 298.325 51.2826 295.393 51.6584Z" fill="#89C5CC"/>
<path fill-rule="evenodd" clip-rule="evenodd" d="M211.055 110.485C208.624 111.133 205.443 115.337 207.116 117.909C209.859 122.128 211.069 115.65 212.217 115.027C214.305 113.892 216.001 118.038 218.184 115.863C221.628 112.432 213.224 109.904 211.055 110.485Z" fill="#69A1AC"/>
<path fill-rule="evenodd" clip-rule="evenodd" d="M238.914 107.366C236.031 107.392 229.944 111.475 229.512 114.489C229.256 116.28 230.444 118 232.374 118.024C235.003 118.056 235.839 114.638 238.117 113.924C240.576 113.153 240.211 114.928 242.334 115.848C243.887 116.522 245.83 116.24 246.37 114.33C247.388 110.727 241.877 107.309 238.914 107.366Z" fill="#69A1AC"/>
<path fill-rule="evenodd" clip-rule="evenodd" d="M216.843 124.624C212.231 127.327 219.82 133.119 222.45 133.844C226.422 134.937 234.415 132.897 235.356 128.045C235.731 126.114 234.523 124.366 232.392 124.711C230.638 124.996 229.512 127.197 227.887 127.985C225.694 129.049 223.744 128.976 221.88 127.375C220.362 126.07 219.549 123.046 216.843 124.624Z" fill="#69A1AC"/>
<path fill-rule="evenodd" clip-rule="evenodd" d="M220.186 164.556C216.065 165.434 211.877 164.845 207.737 165.671C203.515 166.514 200.992 168.109 197.069 166.502C196.885 166.424 196.701 166.346 196.517 166.268C193.481 164.961 190.299 164.573 187.121 166.657C185.241 167.89 179.532 172.156 180.22 174.759C181.711 180.402 188.135 171.553 189.773 170.691C192.896 169.047 195.038 171.147 198.254 171.74C202.105 172.451 205.205 170.415 208.833 169.605C213.077 168.656 217.851 168.326 222.168 167.819C223.874 167.618 230.335 168.967 230.918 166.844C231.92 163.198 221.805 164.212 220.186 164.556Z" fill="#C1DEE2"/>
<path fill-rule="evenodd" clip-rule="evenodd" d="M249.913 175.92C250.182 176.124 249.966 175.96 249.913 175.92V175.92ZM261.453 164.335C264.98 163.977 276.266 161.457 278.583 165.102C280.092 167.476 277.697 176.239 275.412 177.372C273.586 178.277 269.332 177.276 267.328 177.205C263.6 177.074 259.863 177.016 256.139 176.783C254.89 176.705 250.871 176.935 249.892 175.83C248.735 174.524 248.787 167.565 248.515 165.84C251.758 166.889 258.062 164.679 261.453 164.335ZM268.985 160.761C264.467 160.957 259.951 161.297 255.467 161.902C252.967 162.24 250.435 163.138 248.127 163.564C247.382 163.701 246.175 163.321 245.262 163.761C242.596 165.049 244.931 173.759 245.574 176.086C246.561 179.66 249.047 180.239 252.529 180.576C257.116 181.02 261.798 180.88 266.399 180.824C270.835 180.77 276.816 181.753 279.305 177.302C280.913 174.424 282.639 167.723 281.264 164.516C279.455 160.296 272.7 160.605 268.985 160.761Z" fill="#C1DEE2"/>
<path fill-rule="evenodd" clip-rule="evenodd" d="M319.575 178.314C319.333 178.624 319.333 178.624 319.575 178.314V178.314ZM320.564 177.121C320.49 177.234 320.143 177.6 320.564 177.121V177.121ZM309.791 176.793C311.782 176.418 313.774 176.047 315.768 175.684C313.88 178.326 311.892 177.234 308.667 177.004C309.042 176.933 309.416 176.863 309.791 176.793ZM300.29 175.858C300.795 175.689 301.299 175.52 301.804 175.351C301.789 175.735 301.872 176.095 302.052 176.43C301.188 176.337 300.324 176.237 299.462 176.13C299.738 176.039 300.014 175.948 300.29 175.858ZM295.887 172.607C295.859 171.913 296.902 172.389 297.5 172.343C296.347 173.357 295.81 173.445 295.887 172.607ZM311.633 164.742C311.785 164.549 311.985 164.558 312.235 164.771C311.963 164.863 310.912 165.308 311.633 164.742ZM321.844 163.541C321.871 163.541 322.437 164.306 321.844 163.541V163.541ZM321.558 163.291C321.706 163.404 321.706 163.404 321.558 163.291V163.291ZM320.283 163.142C322.371 163.494 322.212 165.944 320.283 163.142V163.142ZM295.754 162.975C295.33 163.327 295.475 162.985 295.754 162.975V162.975ZM303.739 157.758C300.194 157.965 293.688 157.757 290.728 159.645C286.865 162.11 288.897 170.596 289.243 174.316C289.754 179.815 292.341 181.38 297.519 181.957C303.699 182.646 310.049 182.775 316.26 182.611C321.855 182.464 325.041 180.54 326.065 174.65C326.379 172.848 327.176 170.06 327.151 168.334C327.134 167.136 326.537 166.59 326.311 165.572C325.026 159.775 322.878 159.088 316.936 158.835C312.563 158.649 308.03 157.534 303.739 157.758Z" fill="#89C5CC"/>
</g>
<path opacity="0.2" fill-rule="evenodd" clip-rule="evenodd" d="M479.143 7.22534C481.25 6.18057 484.059 7.39227 482.887 10.1542C481.632 13.1118 476.992 13.1484 474.371 13.0898C474.633 13.076 475.478 10.3638 475.767 9.95399C476.62 8.74499 477.848 7.8688 479.143 7.22534ZM454.883 61.1155C454.139 61.7518 454.823 61.1752 454.883 61.1155V61.1155ZM481.592 20.9572C482.852 21.9107 482.911 23.5953 481.881 24.7361C480.655 26.0943 478.416 26.046 476.745 25.9145C475.989 25.855 471.953 25.537 472.91 24.8824C472.837 24.91 472.683 24.9769 472.519 25.0677C472.43 25.3881 472.337 25.7073 472.24 26.0251C472.263 26.0388 472.284 26.0535 472.309 26.0672C472.282 26.0553 472.262 26.0424 472.238 26.0303C471.266 29.2066 469.883 32.2312 468.072 35.0612C468.749 34.7969 469.45 34.5967 470.161 34.5074C472.267 34.2426 476.696 35.8608 474.339 38.6385C472.079 41.3012 468.565 38.4475 466.002 38.055C463.514 41.4924 460.772 44.7869 457.898 47.9713C458.074 48.0258 458.228 48.1395 458.317 48.3166C459.469 47.737 460.67 46.9081 461.737 46.6833C463.276 46.3594 466.432 46.1619 467.595 47.5255C469.024 49.2023 467.49 50.5656 465.8 50.8882C463.349 51.3561 460.141 50.1718 457.783 49.3717C457.513 49.4191 457.219 49.3411 457.043 49.1275C456.991 49.1106 456.939 49.094 456.888 49.0778C453.977 52.2468 450.956 55.3112 447.952 58.3085C447.984 58.3068 448.016 58.3049 448.05 58.3031C448.833 57.7941 449.673 57.3764 450.583 57.1573C452.69 56.6479 455.168 56.6442 456.876 58.1525C458.578 59.6543 459.179 62.282 457.417 63.9703C453.89 67.3497 448.7 59.6511 446.922 59.3306C443.87 62.3446 440.643 65.1608 437.365 67.9202C437.737 67.8078 438.119 67.7252 438.513 67.6879C441.726 67.3817 449.265 71.2786 445.32 75.1184C441.883 78.4645 437.909 72.0295 435.141 69.7797C432.053 72.3517 428.947 74.906 425.929 77.5598C427.575 77.1262 429.165 77.0617 430.929 77.5886C432.754 78.1347 435.698 79.4982 434.543 81.9393C433.368 84.4219 429.832 83.2943 427.99 82.5072C426.986 82.078 424.972 80.6285 423.204 80.0184C418.387 84.5222 414.215 89.4823 411.055 95.3245C409.082 98.9721 407.584 102.869 406.53 106.874C405.856 109.43 404.53 113.723 404.793 117.05C403.533 110.392 405.822 102.393 408.286 96.4403C410.551 90.9662 413.94 86.16 417.909 81.8333C416.915 78.8689 408.539 74.597 413.549 71.8399C416.209 70.3821 418.932 72.7974 419.512 75.3566C419.91 77.1152 419.301 79.3254 418.654 81.0329C419.903 79.7139 421.201 78.4373 422.538 77.2031C424.386 75.4972 426.278 73.8408 428.188 72.2053C425.043 69.2793 422.07 60.9117 426.289 59.5408C432.52 57.5222 429.515 68.9396 429.079 71.0794C428.956 71.0867 428.859 71.0498 428.789 70.9707C428.824 71.1666 428.864 71.3761 428.913 71.5874C432.57 68.4733 436.28 65.4204 439.868 62.2321C439.545 61.9957 439.032 61.0921 438.629 60.6112C437.718 59.5272 436.847 58.3948 436.21 57.1264C435.205 55.122 434.236 51.9246 436.904 50.744C439.806 49.4577 441.183 53.0739 441.203 55.2316C441.216 56.7238 440.804 58.1416 440.59 59.6044C440.523 60.0606 440.779 62.1168 440.152 61.2325C440.182 61.5587 440.186 61.7949 440.171 61.9623C440.815 61.3871 441.454 60.8055 442.09 60.2198C442.06 60.1459 442.038 60.0654 442.034 59.9719C442 59.3287 442.654 59.0806 443.112 59.2688C443.95 58.4799 444.78 57.681 445.595 56.8664C447.323 55.1404 449.076 53.3652 450.817 51.5522C450.439 51.2312 450.59 50.7864 450.237 50.4457C449.885 50.1057 449.191 49.9179 448.776 49.6021C447.734 48.8074 446.87 47.6493 446.246 46.5094C445.215 44.6259 443.883 40.6745 446.899 39.775C450.007 38.8465 451.582 42.65 451.781 45.0284C451.82 45.4892 451.469 49.6413 451.202 51.1491C454.423 47.7797 457.591 44.2841 460.461 40.7277C459.592 40.7202 457.126 38.9566 456.628 38.4752C455.412 37.3012 453.48 34.7067 455.613 33.3321C457.51 32.1129 459.846 33.8762 460.656 35.5906C460.79 35.8729 461.258 38.5009 461.294 39.68C462.482 38.1719 463.616 36.655 464.67 35.1332C465.373 34.1215 466.031 33.083 466.646 32.0226C466.498 31.9396 466.359 31.7949 466.227 31.6149C463.065 31.085 459.036 26.2003 462.751 24.4982C464.52 23.6889 466.437 25.3567 467.303 26.7226C467.48 27.002 467.767 28.4072 468.001 29.5156C469.77 26.0025 471.123 22.2836 472.153 18.4706C471.878 18.4031 471.644 18.1949 471.614 17.8367C470.079 16.9706 468.867 16.2494 467.796 14.583C467.131 13.5479 465.933 11.1829 467.889 10.6072C470.436 9.85817 472.033 13.7088 472.241 15.6057C472.265 15.8259 472.264 16.4663 472.255 17.0532C472.343 17.0413 472.433 17.0426 472.52 17.0579C473.106 14.6969 473.574 12.3056 473.947 9.91033C472.557 9.46807 472.321 2.24018 473.246 1.21053C475.316 -1.09499 476.773 2.23318 476.662 3.99264C476.53 6.06721 475.58 7.95479 474.449 9.63014C474.328 9.80756 474.362 9.79893 474.331 9.55188C474.314 9.67401 474.272 9.76415 474.211 9.82947C474.269 10.9214 474.382 12.0394 474.327 13.0057C474.169 15.773 473.842 18.5564 473.368 21.2883C473.253 21.9527 473.121 22.6117 472.973 23.265C474.09 22.322 475.597 21.4839 476.186 21.2217C477.716 20.542 480.074 19.8078 481.592 20.9572ZM404.543 116.787C404.617 117.676 404.836 118.488 405.268 119.153C404.951 118.393 404.713 117.601 404.543 116.787Z" fill="#C1DEE2"/>
<g opacity="0.5">
<path opacity="0.5" fill-rule="evenodd" clip-rule="evenodd" d="M459.945 97.8344C462.467 94.2388 467.147 85.1071 470.696 83.8223C472.982 82.9948 472.315 91.555 472.344 93.1873C472.453 99.5022 471.839 105.777 471.079 112.039C469.712 123.332 465.239 133.39 459.105 143.002C455.948 147.948 452.246 152.953 447.118 156.039C444.757 157.461 441.917 157.698 439.586 158.923C436.871 160.348 438.349 159.196 437.126 162.025C435.427 165.953 434.883 171.02 434.097 175.211C430.487 194.451 421.748 296.156 423.263 315.726C423.398 317.461 420.979 317.876 420.859 315.758C420.217 304.53 425.77 226.775 428.572 201.347C431.374 175.919 434.209 153.454 437.052 144.657C440.501 133.984 446.73 121.149 451.915 111.196C454.323 106.572 456.949 102.107 459.945 97.8344Z" fill="#69A1AC"/>
<path opacity="0.5" fill-rule="evenodd" clip-rule="evenodd" d="M478.662 222.548C485.224 217.73 492.326 226.822 486.389 231.64C483.106 234.303 479.675 233.356 477.743 231.137C476.489 232.665 475.315 234.264 474.187 235.614C470.75 239.728 467.503 243.94 464.398 248.251C457.95 257.206 452.424 266.666 446.646 275.954C440.944 285.12 435.288 294.334 430.12 303.732C425.742 311.695 419.906 321.063 418.407 329.793C420.681 311.279 429.311 293.483 439.588 277.161C449.781 260.974 461.479 243.295 477.262 230.52C475.656 228.158 475.611 224.786 478.662 222.548Z" fill="#C1DEE2"/>
<path opacity="0.5" fill-rule="evenodd" clip-rule="evenodd" d="M354.148 177.395C357.82 178.113 363.82 186.42 366.847 189.584C370.444 193.345 373.707 197.354 376.784 201.554C383.406 210.595 389.329 220.207 394.365 230.23C402.575 246.571 409.153 263.345 413.927 281.138C416.849 292.031 418.741 303.32 419.862 314.531C420.074 316.645 422.29 332.945 419.096 333.384C416.224 333.78 417.111 321.007 416.972 319.27C415.406 299.669 410.713 280.597 404.185 262.121C402.763 258.097 401.442 253.167 399.168 249.545C397.53 246.937 399.156 247.846 396.278 246.859C393.807 246.011 390.992 246.218 388.462 245.18C382.965 242.926 378.563 238.549 374.705 234.147C367.207 225.593 361.265 216.338 358.168 205.376C356.45 199.298 354.871 193.184 353.995 186.919C353.768 185.299 351.783 176.932 354.148 177.395Z" fill="#69A1AC"/>
<path opacity="0.5" fill-rule="evenodd" clip-rule="evenodd" d="M368.639 39.191C382.47 63.1782 393.836 89.5276 401.175 116.215C405.622 132.385 408.732 148.978 411.821 165.451C416.605 190.957 421.13 216.461 422.417 242.421C423.712 268.53 426.273 298.645 417.724 323.792C421.994 298.261 417.928 271.084 417.208 245.394C416.864 233.13 415.867 220.985 414.56 208.793C413.291 196.966 411.217 185.195 409.287 173.46C408.346 167.745 407.359 162.039 406.353 156.336C406.053 154.634 405.926 149.585 404.847 148.423C403.76 147.253 398.218 146.776 396.477 145.918C392.973 144.188 389.677 141.732 386.76 139.137C381.168 134.162 376.303 127.662 372.464 121.254C363.58 106.427 360.028 88.3327 360.207 71.1613C360.242 67.8274 365.603 31.9265 363.45 31.4321C363.58 31.2803 363.702 31.1235 363.818 30.9604C365.448 33.69 367.048 36.4381 368.639 39.191Z" fill="#89C5CC"/>
<path opacity="0.5" fill-rule="evenodd" clip-rule="evenodd" d="M517.926 125.703C518.139 125.395 519.528 123.254 518.829 123.391C520.253 123.112 516.87 125.752 520.418 124.132C518.733 125.724 519.706 127.79 519.728 129.932C519.765 133.409 519.183 136.857 518.528 140.26C517.494 145.638 515.952 150.867 513.715 155.869C508.838 166.77 500.557 177.264 490.726 184.08C485.873 187.445 481.116 188.59 475.581 190.139C472.085 191.118 471.808 192.927 469.952 196.319C466.088 203.386 462.293 210.427 458.886 217.731C454.817 226.454 450.868 235.186 447.142 244.062C434.591 273.961 424.375 304.937 419.01 336.993C418.879 318.102 423.249 298.646 428.761 280.64C432.777 267.521 438.004 254.875 443.58 242.357C444.931 239.324 446.978 235.423 447.552 232.075C447.954 229.729 446.726 227.473 446.163 225.002C443.971 215.378 444.128 204.597 446.053 194.922C448.176 184.253 454.315 179.302 464.699 177.79C468.497 177.238 473.324 177.44 476.807 175.821C480.601 174.057 482.166 168.261 484.324 164.54C490.118 154.546 497.004 144.96 504.91 136.538C507.099 134.206 509.453 132.055 511.95 130.061C513.525 128.803 516.852 127.253 517.926 125.703Z" fill="#89C5CC"/>
<path opacity="0.5" fill-rule="evenodd" clip-rule="evenodd" d="M401.48 316.592H438.334C439.992 316.592 441.335 317.935 441.335 319.592C441.335 319.738 441.324 319.885 441.303 320.03L438.454 339.345C437.586 345.233 432.533 349.595 426.581 349.595H413.233C407.282 349.595 402.229 345.233 401.36 339.345L398.512 320.03C398.27 318.39 399.403 316.865 401.042 316.624C401.187 316.602 401.334 316.592 401.48 316.592Z" fill="#C1DEE2"/>
</g>
<path fill-rule="evenodd" clip-rule="evenodd" d="M140.214 65.6034C138.164 60.1121 137.611 54.0943 140.106 48.4816C147.295 32.3098 169.07 44.3468 170.523 54.3536C171.975 64.3604 163.729 85.4116 157.378 84.8002C154.845 84.5563 150.442 81.3028 146.52 76.4532L141.576 99.8954L122.966 93.139L140.214 65.6034Z" fill="#E8B88C"/>
<path fill-rule="evenodd" clip-rule="evenodd" d="M159.994 51.9062C156.956 52.402 154.198 54.3966 150.773 57.0834C150.322 56.685 149.789 56.3629 149.189 56.1449C146.619 55.212 143.78 56.5388 142.847 59.1084C142.374 60.4128 142.482 61.7867 143.04 62.9455C141.412 64.0742 139.629 65.2235 137.652 66.3595C133.617 61.3912 133.055 50.9768 141.142 44.0562C151.714 28.1504 171.799 47.697 177.488 46.4324C176.199 53.1294 171.089 57.051 159.994 51.9062Z" fill="#572A00"/>
<path fill-rule="evenodd" clip-rule="evenodd" d="M92.0005 166.838L132.49 269.319L159.647 355.957H170.37L128.854 166.838L92.0005 166.838Z" fill="#E8B88C"/>
<path fill-rule="evenodd" clip-rule="evenodd" d="M90.1866 166.838C89.7554 202.85 83.4676 251.335 82.463 253.58C81.7933 255.077 58.6733 274.108 13.103 310.674L20.4889 318.578C74.2576 287.227 102.386 269.461 104.874 265.279C108.606 259.007 120.757 201.29 130.513 166.838H90.1866Z" fill="#E8B88C"/>
<path fill-rule="evenodd" clip-rule="evenodd" d="M12.582 308.242C10.0152 309.246 8.23854 310.17 7.2521 311.012C6.05237 312.036 4.45739 313.717 2.46716 316.054C3.55157 317.348 13.2974 328.975 31.7046 350.937C35.6881 349.092 36.9899 347.082 35.61 344.91C34.2301 342.737 33.1023 340.917 32.2267 339.448L26.4127 316.596C26.3008 316.156 25.8436 315.919 25.3914 316.067C25.3837 316.069 25.376 316.072 25.3683 316.074L21.7753 317.354C19.3525 316.321 17.6673 315.239 16.7199 314.109C15.9501 313.19 15.2861 311.581 14.7277 309.282L14.7277 309.282C14.5135 308.399 13.6048 307.915 12.6982 308.201C12.6591 308.213 12.6204 308.227 12.582 308.242Z" fill="#191847"/>
<path fill-rule="evenodd" clip-rule="evenodd" d="M155.256 351.958C154.333 354.421 153.871 356.265 153.871 357.488C153.871 358.975 154.119 361.146 154.615 364C156.341 364 171.85 364 201.143 364C202.352 360.003 201.654 357.845 199.049 357.526C196.444 357.207 194.28 356.92 192.557 356.663L170.931 347.022C170.515 346.836 170.027 347.023 169.842 347.439C169.839 347.447 169.836 347.454 169.833 347.461L168.443 350.833C166.031 351.958 164.071 352.521 162.564 352.521C161.339 352.521 159.647 352.026 157.488 351.037L157.488 351.037C156.66 350.657 155.681 351.02 155.301 351.849C155.285 351.885 155.269 351.921 155.256 351.958Z" fill="#191847"/>
<path fill-rule="evenodd" clip-rule="evenodd" d="M132.423 347.5L170.209 341.5L132.423 166.838L94.6611 173.5L132.423 347.5Z" fill="#BBC6C6"/>
<path fill-rule="evenodd" clip-rule="evenodd" d="M23.6492 297.922L50.0005 326.5C85.2256 288.028 106.153 268.234 112 256.5C117.848 244.766 116.335 218.678 121 166.838H83.0603C80.5116 212.444 78.7936 236.309 77.9063 238.431C77.019 240.553 58.9333 260.384 23.6492 297.922Z" fill="#DCE2E2"/>
<path fill-rule="evenodd" clip-rule="evenodd" d="M154.778 121.521L186.474 113.126C192.478 108.759 198.11 105.607 203.37 103.669C204.889 103.435 207.383 103.681 204.144 107.122C200.905 110.563 197.653 114.327 198.496 115.842C199.339 117.357 202.624 116.343 203.488 118.727C204.063 120.316 198.644 121.264 187.229 121.57L162.355 135.134L154.778 121.521ZM195.318 145.223L209.246 141.515C212.584 135.392 215.455 132.606 217.858 133.156C219.908 132.754 214.662 140.237 218.325 140.381C221.987 140.524 232.056 136.299 233.204 137.945C234.903 140.381 231.529 145.739 228.534 148.079C222.936 152.452 218.953 153.437 209.64 153.714C204.77 153.859 199.216 155.189 192.977 157.703L195.318 145.223Z" fill="#E8B88C"/>
<path fill-rule="evenodd" clip-rule="evenodd" d="M142.022 114.757C151.827 117.069 165.377 118.224 181.473 112.828L183.928 126.364C171.978 133.519 156.549 138.012 144.831 134.766C135.596 132.208 133.622 119.786 142.022 114.757Z" fill="url(#paint0_linear)"/>
<path fill-rule="evenodd" clip-rule="evenodd" d="M150.363 137.552C160.105 142.705 178.269 143.952 204.854 141.291C207.818 155.329 208.412 164.961 206.636 170.188C182.968 175.961 163.794 176.406 148.911 173.072C147.212 181.972 144.079 190.065 138.601 196.815C127.34 210.691 87.6967 185.473 72.4531 184.744C70.6518 152.932 91.2209 145.264 95.9073 126.351C101.039 105.639 125.549 77.8601 127.996 78.4646L150.315 83.977C147.639 100.102 149.531 119.069 150.363 137.552Z" fill="url(#paint1_linear)"/>
<line x1="136.133" y1="183.345" x2="264.319" y2="215.996" stroke="#C43392" stroke-width="35"/>
<circle cx="129.5" cy="212.5" r="25.5" fill="#C33392"/>
<path fill-rule="evenodd" clip-rule="evenodd" d="M349.118 113.223C350.12 107.366 352.769 101.742 357.994 97.906C373.048 86.8537 386.666 107.786 382.751 117.389C378.835 126.993 360.255 141.9 354.764 138.38C352.574 136.976 350.25 132.013 349.202 125.851L332.392 144.438L318.903 129.696L349.118 113.223Z" fill="#FFDBBA"/>
<path fill-rule="evenodd" clip-rule="evenodd" d="M356.807 87.4584C356.881 86.5515 357.371 85.6777 357.856 84.8699C358.361 84.0309 358.878 83.1922 359.484 82.4069C360.694 80.8379 362.408 79.3871 364.47 79.3964C366.124 79.404 367.627 80.2401 368.72 81.2598C369.448 81.9391 370.023 82.7823 370.415 83.6917C370.804 84.5941 370.86 85.6068 371.171 86.5372C372.804 85.2061 374.721 84.0418 376.787 83.6397C378.774 83.2529 380.577 83.7879 381.982 84.944C383.424 86.1306 384.306 87.7589 384.708 89.5709C384.809 90.0246 384.898 90.4826 384.951 90.9483C384.996 91.3382 385.013 91.7681 385.2 92.1117C385.409 92.4949 385.749 92.4854 386.185 92.481C386.696 92.4758 387.201 92.5304 387.691 92.6253C389.857 93.0452 391.792 94.3604 392.532 96.3381C392.874 97.2493 393.004 98.3055 392.773 99.313C392.568 100.211 391.916 101.278 392.029 102.184C392.077 102.568 392.459 102.546 392.826 102.623C393.378 102.738 393.942 102.816 394.491 102.941C395.262 103.117 395.982 103.404 396.611 103.831C397.532 104.455 398.486 105.588 397.574 106.757C397.232 107.196 396.723 107.51 396.274 107.84C395.659 108.292 395.042 108.743 394.419 109.185C393.946 109.521 393.479 109.835 392.976 110.123C392.707 110.277 392.16 110.511 392.013 110.797C391.829 111.155 392.476 111.545 392.673 111.78C393.061 112.242 393.386 112.762 393.557 113.347C393.69 113.802 393.763 114.335 393.491 114.804C393.324 115.091 393.054 115.28 392.769 115.452C392.426 115.657 392.316 115.845 392.045 116.136C392.912 116.466 395.518 117.946 394.598 119.184C394.291 119.596 393.674 119.766 393.211 119.889C392.398 120.105 391.558 120.198 390.736 120.262C389.021 120.396 387.317 120.266 385.681 119.96C386.165 121.526 384.853 123.148 383.03 122.975C382.226 122.899 381.609 122.404 381.144 121.844C380.974 121.639 380.796 121.286 380.617 121.163C380.521 121.096 380.363 121.071 380.249 120.963C379.499 120.251 378.913 119.228 378.417 118.333C377.532 116.739 377.063 114.917 377.158 113.028C377.182 112.543 377.136 112.198 376.81 111.849C376.524 111.542 376.155 111.316 375.864 111.014C375.094 110.216 374.851 109.116 374.444 108.115C373.295 109.001 371.81 109.737 370.431 110.157C369.306 110.499 368.535 109.884 367.822 109.243C365.542 107.191 363.737 104.724 361.678 102.48C363.137 105.102 364.974 107.535 366.321 110.217C366.93 111.43 365.54 111.283 364.668 111.281C363.231 111.277 361.762 111.612 360.382 112.149C360.906 109.823 360.173 107.11 358.189 105.832C355.997 104.419 352.125 105.388 351.269 108.194C350.773 109.823 351.469 111.423 351.926 112.856C350.294 112.813 348.789 113.739 347.23 114.2C346.461 114.427 345.532 114.619 344.853 114.249C344.602 114.112 344.385 113.887 344.07 113.877C343.68 113.866 343.398 114.022 342.989 113.932C341.358 113.572 340.015 111.993 340.18 110.315C340.329 108.798 341.89 107.845 343.369 107.759C342.884 106.318 341.749 103.906 343.884 102.841C341.977 100.441 340.913 91.6067 346.585 92.2034C346.078 89.6793 347.162 86.0528 350.331 85.2767C352.772 84.679 355.279 85.9606 356.807 87.4584Z" fill="#D04002"/>
<path fill-rule="evenodd" clip-rule="evenodd" d="M244.226 168.396L277.514 273.2L293.639 362.329H306.282L289.243 168.396H244.226Z" fill="#1A1A1E"/>
<path fill-rule="evenodd" clip-rule="evenodd" d="M232.318 168.396C234.578 225.939 231.918 255.621 231.412 260.849C230.906 266.077 223.976 299.976 207.572 364.084L221.045 359.628C246.97 300.831 255.804 270.273 258.778 262.552C261.751 254.832 269.648 223.446 282.469 168.396H232.318Z" fill="#1A1A1E"/>
<path fill-rule="evenodd" clip-rule="evenodd" d="M210.312 358.69C209.253 358.248 208.009 358.713 207.609 359.789C206.977 361.493 206.189 363.894 206.189 365.275C206.189 367.579 206.986 372 206.986 372C209.762 372 256.878 372 256.878 372C256.878 372 258.823 365.808 254.633 365.314C250.443 364.821 247.671 364.423 247.671 364.423L224.571 354.505C224.063 354.287 223.475 354.522 223.257 355.03L221.814 358.402C221.814 358.402 217.935 360.145 215.51 360.145C214.09 360.145 211.892 359.35 210.312 358.69Z" fill="#673506"/>
<path fill-rule="evenodd" clip-rule="evenodd" d="M293.463 358.69C292.403 358.248 291.159 358.713 290.76 359.789C290.128 361.493 289.34 363.894 289.34 365.275C289.34 367.579 290.137 372 290.137 372C292.913 372 340.029 372 340.029 372C340.029 372 341.973 365.808 337.783 365.314C333.593 364.821 330.822 364.423 330.822 364.423L307.721 354.505C307.214 354.287 306.625 354.522 306.408 355.03L304.964 358.402C304.964 358.402 301.085 360.145 298.66 360.145C297.241 360.145 295.042 359.35 293.463 358.69Z" fill="#673506"/>
<path fill-rule="evenodd" clip-rule="evenodd" d="M403.535 182.529L372.623 166.642L368.656 182.171L397.987 189.4C407.143 197.162 412.073 200.245 412.778 198.649C413.373 197.303 412.588 196.227 411.865 195.236C411.301 194.464 410.776 193.743 410.969 192.987C411.41 191.259 416.693 190.709 421.729 190.392C426.766 190.076 424.994 188.145 423.634 187.257C418.109 185.03 411.409 183.454 403.535 182.529ZM334.312 238.194L328.865 204.926L313.57 211.205L325.256 238.06C324.33 249.749 324.742 255.385 326.494 254.968C327.971 254.616 328.392 253.367 328.779 252.217C329.081 251.321 329.362 250.485 330.107 250.179C331.809 249.481 335.453 253.205 338.754 256.882C342.055 260.558 342.591 258.038 342.508 256.462C341.026 250.883 338.294 244.794 334.312 238.194Z" fill="#FFDBBA"/>
<path fill-rule="evenodd" clip-rule="evenodd" d="M337.046 137.155C327.775 167.11 328.085 197.156 334.882 234.574L316.527 235.673C300.393 202.16 292.589 183.785 305.04 159.008C308.165 152.79 322.264 136.918 329.296 128.199L337.046 137.155Z" fill="url(#paint2_linear)"/>
<path fill-rule="evenodd" clip-rule="evenodd" d="M239.268 173.079L287.658 219.291C287.658 219.291 320.949 155.477 339.127 137.207C339.745 136.586 339.682 134.392 339.018 134.037C331.73 130.143 328.027 121.248 328.027 121.248C298.256 127.995 271.76 146.001 239.268 173.079Z" fill="#F2F2F2"/>
<path fill-rule="evenodd" clip-rule="evenodd" d="M312.247 159.847C287.652 198.169 260.983 223.299 244.298 207.365L218.497 182.724C241.712 152.388 290.353 126.036 319.439 117.093C320.55 116.751 322.737 116.196 324.649 118.022L332.146 125.182C332.14 125.194 332.133 125.207 332.127 125.22C334.364 127.392 336.767 129.844 339.369 132.499C352.764 146.168 371.442 165.228 400.094 179.288L389.958 194.02C357.83 187.392 328.275 177.8 312.247 159.847Z" fill="url(#paint3_linear)"/>
<defs>
<linearGradient id="paint0_linear" x1="161.038" y1="111.832" x2="159.546" y2="133.716" gradientUnits="userSpaceOnUse">
<stop stop-color="#0084E9"/>
<stop offset="1" stop-color="#292DC2"/>
</linearGradient>
<linearGradient id="paint1_linear" x1="158.766" y1="89.6721" x2="136.922" y2="190.712" gradientUnits="userSpaceOnUse">
<stop stop-color="#0084E9"/>
<stop offset="1" stop-color="#292DC2"/>
</linearGradient>
<linearGradient id="paint2_linear" x1="353.655" y1="168.437" x2="303.851" y2="200.168" gradientUnits="userSpaceOnUse">
<stop stop-color="#0084E9"/>
<stop offset="1" stop-color="#292DC2"/>
</linearGradient>
<linearGradient id="paint3_linear" x1="352.676" y1="139.166" x2="279.206" y2="221.087" gradientUnits="userSpaceOnUse">
<stop stop-color="#0084E9"/>
<stop offset="1" stop-color="#292DC2"/>
</linearGradient>
</defs>
</svg>
