<svg width="436" height="339" viewBox="0 0 436 339" fill="none" xmlns="http://www.w3.org/2000/svg">
<path fill-rule="evenodd" clip-rule="evenodd" d="M138.214 32.6034C136.163 27.1121 135.611 21.0943 138.106 15.4816C145.295 -0.690178 167.07 11.3468 168.523 21.3536C169.975 31.3604 161.728 52.4116 155.378 51.8002C152.845 51.5563 148.442 48.3028 144.519 43.4532L139.576 66.8954L120.966 60.139L138.214 32.6034Z" fill="#E8B88C"/>
<path fill-rule="evenodd" clip-rule="evenodd" d="M157.994 18.9062C154.956 19.402 152.198 21.3966 148.773 24.0834C148.322 23.685 147.789 23.3629 147.189 23.1449C144.619 22.212 141.78 23.5388 140.847 26.1084C140.374 27.4128 140.482 28.7867 141.04 29.9455C139.412 31.0742 137.629 32.2235 135.652 33.3595C131.617 28.3912 131.055 17.9768 139.142 11.0562C149.714 -4.84965 169.799 14.697 175.488 13.4324C174.199 20.1294 169.089 24.051 157.994 18.9062Z" fill="#572A00"/>
<path fill-rule="evenodd" clip-rule="evenodd" d="M90.0005 133.838L130.49 236.319L157.647 322.957H168.37L126.854 133.838L90.0005 133.838Z" fill="#E8B88C"/>
<path fill-rule="evenodd" clip-rule="evenodd" d="M88.1866 133.838C87.7554 169.85 81.4676 218.335 80.463 220.58C79.7933 222.077 56.6733 241.108 11.103 277.674L18.4889 285.578C72.2576 254.227 100.386 236.461 102.874 232.279C106.606 226.007 118.757 168.29 128.513 133.838H88.1866Z" fill="#E8B88C"/>
<path fill-rule="evenodd" clip-rule="evenodd" d="M10.582 275.242C8.01518 276.246 6.23854 277.17 5.2521 278.012C4.05237 279.036 2.45739 280.717 0.467159 283.054C1.55157 284.347 11.2974 295.975 29.7046 317.937C33.6881 316.091 34.9899 314.082 33.61 311.91C32.2301 309.737 31.1023 307.916 30.2267 306.448L24.4127 283.596C24.3008 283.156 23.8436 282.919 23.3914 283.066C23.3837 283.069 23.376 283.072 23.3683 283.074L19.7753 284.354C17.3525 283.321 15.6673 282.239 14.7199 281.109C13.9501 280.19 13.2861 278.581 12.7277 276.281L12.7277 276.281C12.5135 275.399 11.6048 274.915 10.6982 275.201C10.6591 275.213 10.6204 275.227 10.582 275.242Z" fill="#191847"/>
<path fill-rule="evenodd" clip-rule="evenodd" d="M153.256 318.958C152.333 321.421 151.871 323.265 151.871 324.488C151.871 325.975 152.119 328.146 152.615 331C154.341 331 169.85 331 199.143 331C200.352 327.003 199.654 324.845 197.049 324.526C194.444 324.207 192.28 323.92 190.557 323.663L168.931 314.022C168.515 313.836 168.027 314.023 167.842 314.439C167.839 314.447 167.836 314.454 167.833 314.461L166.443 317.833C164.031 318.958 162.071 319.521 160.564 319.521C159.339 319.521 157.647 319.026 155.488 318.037L155.488 318.037C154.66 317.657 153.681 318.02 153.301 318.849C153.285 318.885 153.269 318.921 153.256 318.958Z" fill="#191847"/>
<path fill-rule="evenodd" clip-rule="evenodd" d="M130.423 314.5L168.209 308.5L130.423 133.838L92.6611 140.5L130.423 314.5Z" fill="#BBC6C6"/>
<path fill-rule="evenodd" clip-rule="evenodd" d="M21.6492 264.922L48.0005 293.5C83.2256 255.028 104.153 235.234 110 223.5C115.848 211.766 114.335 185.678 119 133.838H81.0603C78.5116 179.444 76.7936 203.309 75.9063 205.431C75.019 207.553 56.9333 227.384 21.6492 264.922Z" fill="#DCE2E2"/>
<path fill-rule="evenodd" clip-rule="evenodd" d="M152.778 88.5211L184.474 80.1255C190.479 75.7588 196.111 72.6067 201.37 70.6693C202.889 70.4345 205.383 70.6813 202.144 74.1219C198.905 77.5625 195.653 81.3272 196.496 82.8419C197.339 84.3566 200.624 83.343 201.488 85.7269C202.063 87.3162 196.644 88.2637 185.229 88.5694L160.355 102.134L152.778 88.5211ZM193.318 112.223L207.246 108.515C210.584 102.392 213.455 99.6057 215.858 100.156C217.908 99.7544 212.663 107.237 216.325 107.381C219.987 107.524 230.056 103.298 231.205 104.945C232.904 107.381 229.529 112.738 226.534 115.078C220.936 119.452 216.953 120.437 207.64 120.714C202.77 120.859 197.216 122.188 190.977 124.703L193.318 112.223Z" fill="#E8B88C"/>
<path fill-rule="evenodd" clip-rule="evenodd" d="M140.022 81.7566C149.827 84.0686 163.377 85.2241 179.473 79.8284L181.928 93.3642C169.978 100.519 154.549 105.012 142.831 101.766C133.596 99.2077 131.622 86.7857 140.022 81.7566Z" fill="url(#paint0_linear)"/>
<path fill-rule="evenodd" clip-rule="evenodd" d="M148.363 104.552C158.105 109.705 176.269 110.952 202.854 108.291C205.819 122.329 206.412 131.961 204.636 137.188C180.968 142.961 161.794 143.406 146.911 140.072C145.212 148.972 142.079 157.065 136.601 163.815C125.34 177.691 85.6968 152.473 70.4532 151.744C68.6519 119.932 89.221 112.264 93.9074 93.3509C99.0395 72.6387 123.549 44.8601 125.997 45.4646L148.315 50.977C145.639 67.1023 147.531 86.0695 148.363 104.552Z" fill="url(#paint1_linear)"/>
<line x1="134.133" y1="150.345" x2="262.319" y2="182.996" stroke="#C43392" stroke-width="35"/>
<circle cx="127.5" cy="179.5" r="25.5" fill="#C33392"/>
<path fill-rule="evenodd" clip-rule="evenodd" d="M358.118 80.2234C359.12 74.3666 361.769 68.742 366.994 64.9061C382.048 53.8538 395.666 74.7864 391.751 84.3895C387.835 93.9927 369.255 108.9 363.764 105.38C361.574 103.976 359.25 99.013 358.202 92.8514L341.392 111.438L327.903 96.6966L358.118 80.2234Z" fill="#FFDBBA"/>
<path fill-rule="evenodd" clip-rule="evenodd" d="M365.807 54.4585C365.881 53.5517 366.371 52.6778 366.856 51.87C367.361 51.031 367.878 50.1923 368.484 49.4071C369.694 47.8381 371.408 46.3872 373.47 46.3966C375.124 46.4041 376.627 47.2402 377.72 48.2599C378.448 48.9393 379.023 49.7824 379.415 50.6919C379.804 51.5942 379.86 52.607 380.171 53.5373C381.804 52.2062 383.721 51.0419 385.787 50.6398C387.774 50.253 389.577 50.788 390.982 51.9441C392.424 53.1307 393.306 54.7591 393.708 56.571C393.809 57.0247 393.898 57.4827 393.951 57.9484C393.996 58.3384 394.013 58.7682 394.2 59.1119C394.409 59.495 394.749 59.4856 395.185 59.4812C395.696 59.476 396.201 59.5305 396.691 59.6255C398.857 60.0454 400.792 61.3605 401.532 63.3382C401.874 64.2495 402.004 65.3056 401.773 66.3131C401.568 67.2112 400.916 68.2785 401.029 69.184C401.077 69.5683 401.459 69.5461 401.826 69.6229C402.378 69.7382 402.942 69.8163 403.491 69.9413C404.262 70.1168 404.982 70.4042 405.611 70.8309C406.532 71.4555 407.486 72.5881 406.574 73.7574C406.232 74.1966 405.723 74.5103 405.274 74.8398C404.659 75.2923 404.042 75.7429 403.419 76.1855C402.946 76.5216 402.479 76.8356 401.976 77.1234C401.707 77.2768 401.16 77.5108 401.013 77.7972C400.829 78.1552 401.476 78.5454 401.673 78.7797C402.061 79.2426 402.386 79.7617 402.557 80.3476C402.69 80.8017 402.763 81.3355 402.491 81.8038C402.324 82.0916 402.054 82.2801 401.769 82.4516C401.426 82.6575 401.316 82.8454 401.045 83.1356C401.912 83.4663 404.518 84.9459 403.598 86.1842C403.291 86.5965 402.674 86.7661 402.211 86.8893C401.398 87.1056 400.558 87.198 399.736 87.2622C398.021 87.3964 396.317 87.2666 394.681 86.9604C395.165 88.5266 393.853 90.1482 392.03 89.9756C391.226 89.8993 390.609 89.4041 390.144 88.8441C389.974 88.6391 389.796 88.2865 389.617 88.1629C389.521 88.0963 389.363 88.0714 389.249 87.9631C388.499 87.2516 387.913 86.2286 387.417 85.3336C386.532 83.7388 386.063 81.9176 386.158 80.0278C386.182 79.5431 386.136 79.1983 385.81 78.8488C385.524 78.5425 385.155 78.3163 384.864 78.0145C384.094 77.2162 383.851 76.1157 383.444 75.1147C382.295 76.0012 380.81 76.7369 379.431 77.1568C378.306 77.4993 377.535 76.8846 376.822 76.2428C374.542 74.1907 372.737 71.7241 370.678 69.4799C372.137 72.1025 373.974 74.5347 375.321 77.2172C375.93 78.4297 374.54 78.2832 373.668 78.2809C372.231 78.2771 370.762 78.6123 369.382 79.1491C369.906 76.8227 369.173 74.1102 367.189 72.8316C364.997 71.4189 361.125 72.3882 360.269 75.1945C359.773 76.8236 360.469 78.423 360.926 79.8563C359.294 79.8132 357.789 80.739 356.23 81.1999C355.461 81.4271 354.532 81.6191 353.853 81.2493C353.602 81.1125 353.385 80.8868 353.07 80.8776C352.68 80.866 352.398 81.0223 351.989 80.932C350.358 80.572 349.015 78.9934 349.18 77.3156C349.329 75.7983 350.89 74.8447 352.369 74.7588C351.884 73.3183 350.749 70.9062 352.884 69.8407C350.977 67.441 349.913 58.6068 355.585 59.2035C355.078 56.6794 356.162 53.0529 359.331 52.2768C361.772 51.6791 364.279 52.9608 365.807 54.4585Z" fill="#D04002"/>
<path fill-rule="evenodd" clip-rule="evenodd" d="M253.226 135.396L286.514 240.2L302.639 329.329H315.282L298.243 135.396H253.226Z" fill="#1A1A1E"/>
<path fill-rule="evenodd" clip-rule="evenodd" d="M241.318 135.396C243.578 192.939 240.918 222.621 240.412 227.849C239.906 233.077 232.976 266.976 216.572 331.084L230.045 326.628C255.97 267.831 264.804 237.273 267.778 229.552C270.751 221.832 278.648 190.446 291.469 135.396H241.318Z" fill="#1A1A1E"/>
<path fill-rule="evenodd" clip-rule="evenodd" d="M219.312 325.69C218.252 325.248 217.009 325.713 216.609 326.79C215.977 328.493 215.189 330.894 215.189 332.275C215.189 334.579 215.986 339 215.986 339C218.762 339 265.878 339 265.878 339C265.878 339 267.823 332.808 263.633 332.314C259.443 331.821 256.671 331.423 256.671 331.423L233.571 321.505C233.063 321.287 232.474 321.522 232.257 322.03L230.813 325.402C230.813 325.402 226.935 327.145 224.509 327.145C223.09 327.145 220.891 326.35 219.312 325.69Z" fill="#E4E4E4"/>
<path fill-rule="evenodd" clip-rule="evenodd" d="M302.463 325.69C301.403 325.248 300.159 325.713 299.76 326.79C299.128 328.493 298.34 330.894 298.34 332.275C298.34 334.579 299.137 339 299.137 339C301.913 339 349.029 339 349.029 339C349.029 339 350.973 332.808 346.783 332.314C342.593 331.821 339.822 331.423 339.822 331.423L316.721 321.505C316.214 321.287 315.625 321.522 315.408 322.03L313.964 325.402C313.964 325.402 310.085 327.145 307.66 327.145C306.241 327.145 304.042 326.35 302.463 325.69Z" fill="#E4E4E4"/>
<path fill-rule="evenodd" clip-rule="evenodd" d="M412.535 149.529L381.623 133.642L377.656 149.171L406.987 156.4C416.143 164.162 421.074 167.245 421.779 165.649C422.373 164.303 421.588 163.227 420.865 162.236C420.302 161.464 419.776 160.743 419.969 159.987C420.411 158.259 425.693 157.709 430.73 157.392C435.767 157.076 433.994 155.145 432.635 154.257C427.109 152.03 420.41 150.454 412.535 149.529ZM343.312 205.194L337.866 171.926L322.57 178.205L334.257 205.06C333.33 216.749 333.743 222.385 335.495 221.968C336.972 221.616 337.392 220.367 337.779 219.217C338.081 218.321 338.362 217.485 339.108 217.179C340.81 216.481 344.454 220.205 347.755 223.882C351.056 227.558 351.591 225.038 351.508 223.462C350.026 217.883 347.294 211.794 343.312 205.194Z" fill="#FFDBBA"/>
<path fill-rule="evenodd" clip-rule="evenodd" d="M346.046 104.155C336.775 134.11 337.085 164.156 343.882 201.574L325.527 202.673C309.393 169.16 301.59 150.785 314.04 126.008C317.165 119.79 331.264 103.918 338.297 95.1987L346.046 104.155Z" fill="url(#paint2_linear)"/>
<path fill-rule="evenodd" clip-rule="evenodd" d="M248.269 140.079L296.658 186.291C296.658 186.291 329.949 122.477 348.127 104.207C348.745 103.586 348.682 101.392 348.018 101.037C340.731 97.1428 337.027 88.248 337.027 88.248C307.257 94.9947 280.76 113.001 248.269 140.079Z" fill="#F2F2F2"/>
<path fill-rule="evenodd" clip-rule="evenodd" d="M321.248 126.847C296.652 165.169 269.983 190.299 253.298 174.365L227.497 149.724C250.712 119.388 299.353 93.0366 328.44 84.0927C329.55 83.7511 331.737 83.1961 333.649 85.0221L341.146 92.1819C341.14 92.1946 341.133 92.2072 341.127 92.2199C343.364 94.3922 345.767 96.844 348.369 99.4992C361.764 113.169 380.442 132.228 409.094 146.289L398.958 161.02C366.83 154.392 337.276 144.8 321.248 126.847Z" fill="url(#paint3_linear)"/>
<defs>
<linearGradient id="paint0_linear" x1="159.038" y1="78.8317" x2="157.546" y2="100.716" gradientUnits="userSpaceOnUse">
<stop stop-color="#0084E9"/>
<stop offset="1" stop-color="#292DC2"/>
</linearGradient>
<linearGradient id="paint1_linear" x1="156.766" y1="56.6721" x2="134.922" y2="157.712" gradientUnits="userSpaceOnUse">
<stop stop-color="#0084E9"/>
<stop offset="1" stop-color="#292DC2"/>
</linearGradient>
<linearGradient id="paint2_linear" x1="362.655" y1="135.437" x2="312.851" y2="167.168" gradientUnits="userSpaceOnUse">
<stop stop-color="#0084E9"/>
<stop offset="1" stop-color="#292DC2"/>
</linearGradient>
<linearGradient id="paint3_linear" x1="361.676" y1="106.167" x2="288.206" y2="188.088" gradientUnits="userSpaceOnUse">
<stop stop-color="#0084E9"/>
<stop offset="1" stop-color="#292DC2"/>
</linearGradient>
</defs>
</svg>
